<svg width="604" height="345" viewBox="0 0 604 345" fill="none" xmlns="http://www.w3.org/2000/svg">
<g filter="url(#filter0_d_15_129)">
<g filter="url(#filter1_d_15_129)">
<rect x="4" width="596" height="337" fill="#FF7300"/>
</g>
<path d="M26.168 68V34.4H37.352C40.84 34.4 43.464 35.2 45.224 36.8C46.984 38.4 47.864 40.448 47.864 42.944C47.864 44.896 47.336 46.512 46.28 47.792C45.224 49.04 44.04 49.92 42.728 50.432V50.768C44.296 51.28 45.672 52.208 46.856 53.552C48.04 54.896 48.632 56.624 48.632 58.736C48.632 60.464 48.2 62.032 47.336 63.44C46.504 64.816 45.272 65.92 43.64 66.752C42.04 67.584 40.072 68 37.736 68H26.168ZM30.2 48.896H37.064C39.208 48.896 40.84 48.432 41.96 47.504C43.112 46.544 43.688 45.168 43.688 43.376C43.688 41.68 43.128 40.368 42.008 39.44C40.888 38.512 39.192 38.048 36.92 38.048H30.2V48.896ZM30.2 64.304H37.304C39.608 64.304 41.384 63.792 42.632 62.768C43.88 61.712 44.504 60.24 44.504 58.352C44.504 56.464 43.848 55.008 42.536 53.984C41.224 52.928 39.448 52.4 37.208 52.4H30.2V64.304ZM49.0453 68L59.5573 34.4H64.2133L74.6773 68H70.2613L67.8133 59.648H55.9093L53.4613 68H49.0453ZM61.7653 40.064L56.9173 56.288H66.8053L61.9573 40.064H61.7653ZM86.5625 68.576C83.8425 68.576 81.4905 67.856 79.5065 66.416C77.5545 64.976 76.0505 62.96 74.9945 60.368C73.9705 57.776 73.4585 54.72 73.4585 51.2C73.4585 47.712 73.9705 44.672 74.9945 42.08C76.0505 39.456 77.5545 37.424 79.5065 35.984C81.4905 34.544 83.8425 33.824 86.5625 33.824C90.0185 33.824 92.8025 34.784 94.9145 36.704C97.0265 38.592 98.2585 41.12 98.6105 44.288H94.1465C93.8265 42.4 93.0265 40.816 91.7465 39.536C90.4665 38.256 88.7385 37.616 86.5625 37.616C83.7785 37.616 81.5865 38.832 79.9865 41.264C78.3865 43.664 77.5865 46.976 77.5865 51.2C77.5865 55.456 78.3865 58.784 79.9865 61.184C81.5865 63.584 83.7785 64.784 86.5625 64.784C88.8345 64.784 90.5785 64.176 91.7945 62.96C93.0425 61.744 93.8265 60.176 94.1465 58.256H98.6105C98.0985 61.456 96.8185 63.984 94.7705 65.84C92.7545 67.664 90.0185 68.576 86.5625 68.576ZM100.32 68V34.4H104.352V50.048L117.504 34.4H122.64L108.48 51.104V51.296L122.832 68H117.6L104.352 52.592V68H100.32ZM134.909 68.576C132.541 68.576 130.429 67.888 128.573 66.512C126.717 65.104 125.261 63.104 124.205 60.512C123.181 57.92 122.669 54.816 122.669 51.2C122.669 47.616 123.197 44.528 124.253 41.936C125.309 39.344 126.797 37.344 128.717 35.936C130.669 34.528 132.973 33.824 135.629 33.824C138.797 33.824 141.373 34.752 143.357 36.608C145.373 38.464 146.573 40.96 146.957 44.096H142.493C142.173 42.176 141.421 40.624 140.237 39.44C139.085 38.224 137.549 37.616 135.629 37.616C132.877 37.616 130.717 38.816 129.149 41.216C127.581 43.616 126.797 46.944 126.797 51.2C126.797 55.52 127.581 58.864 129.149 61.232C130.717 63.6 132.749 64.784 135.245 64.784C137.037 64.784 138.509 64.256 139.661 63.2C140.813 62.112 141.677 60.736 142.253 59.072C142.861 57.376 143.197 55.632 143.261 53.84H135.773V50.384H147.389V68H143.693L143.357 62.912H143.165C142.493 64.64 141.501 66.016 140.189 67.04C138.909 68.064 137.149 68.576 134.909 68.576ZM149.242 68V34.4H159.562C162.154 34.4 164.282 34.832 165.946 35.696C167.642 36.56 168.906 37.744 169.738 39.248C170.57 40.72 170.986 42.4 170.986 44.288C170.986 46.496 170.41 48.448 169.258 50.144C168.138 51.808 166.41 52.976 164.074 53.648L171.37 68H166.57L159.802 54.224H159.562H153.274V68H149.242ZM153.274 50.528H159.418C161.978 50.528 163.85 49.952 165.034 48.8C166.25 47.616 166.858 46.112 166.858 44.288C166.858 42.368 166.266 40.848 165.082 39.728C163.93 38.608 162.026 38.048 159.37 38.048H153.274V50.528ZM184.168 68.576C181.448 68.576 179.112 67.856 177.16 66.416C175.208 64.976 173.704 62.96 172.648 60.368C171.624 57.744 171.112 54.688 171.112 51.2C171.112 47.712 171.624 44.672 172.648 42.08C173.704 39.456 175.208 37.424 177.16 35.984C179.112 34.544 181.448 33.824 184.168 33.824C186.888 33.824 189.224 34.544 191.176 35.984C193.128 37.424 194.616 39.456 195.64 42.08C196.696 44.672 197.224 47.712 197.224 51.2C197.224 54.688 196.696 57.744 195.64 60.368C194.616 62.96 193.128 64.976 191.176 66.416C189.224 67.856 186.888 68.576 184.168 68.576ZM184.168 64.784C186.824 64.784 188.968 63.6 190.6 61.232C192.264 58.864 193.096 55.52 193.096 51.2C193.096 46.88 192.264 43.536 190.6 41.168C188.968 38.8 186.824 37.616 184.168 37.616C181.48 37.616 179.32 38.8 177.688 41.168C176.056 43.536 175.24 46.88 175.24 51.2C175.24 55.52 176.056 58.864 177.688 61.232C179.32 63.6 181.48 64.784 184.168 64.784ZM208.581 68.576C206.341 68.576 204.341 68.112 202.581 67.184C200.853 66.256 199.477 64.848 198.453 62.96C197.461 61.04 196.965 58.64 196.965 55.76V34.4H200.997V55.904C200.997 58.784 201.701 61.008 203.109 62.576C204.517 64.144 206.373 64.928 208.677 64.928C210.981 64.928 212.821 64.144 214.197 62.576C215.573 61.008 216.261 58.784 216.261 55.904V34.4H220.293V55.76C220.293 58.64 219.781 61.04 218.757 62.96C217.733 64.848 216.341 66.256 214.581 67.184C212.821 68.112 210.821 68.576 208.581 68.576ZM221.426 68V34.4H225.554L240.818 60.944V34.4H244.802V68H240.626L225.362 41.456V68H221.426ZM246.319 68V34.4H253.375C258.879 34.4 262.943 35.904 265.567 38.912C268.223 41.92 269.551 46.016 269.551 51.2C269.551 56.384 268.223 60.48 265.567 63.488C262.943 66.496 258.879 68 253.375 68H246.319ZM250.351 64.304H253.279C256.223 64.304 258.575 63.76 260.335 62.672C262.127 61.584 263.423 60.064 264.223 58.112C265.023 56.16 265.423 53.856 265.423 51.2C265.423 48.544 265.023 46.24 264.223 44.288C263.423 42.336 262.127 40.816 260.335 39.728C258.575 38.64 256.223 38.096 253.279 38.096H250.351V64.304ZM295.242 68V34.4H306.426C309.914 34.4 312.538 35.2 314.298 36.8C316.058 38.4 316.938 40.448 316.938 42.944C316.938 44.896 316.41 46.512 315.354 47.792C314.298 49.04 313.114 49.92 311.802 50.432V50.768C313.37 51.28 314.746 52.208 315.93 53.552C317.114 54.896 317.706 56.624 317.706 58.736C317.706 60.464 317.274 62.032 316.41 63.44C315.578 64.816 314.346 65.92 312.714 66.752C311.114 67.584 309.146 68 306.81 68H295.242ZM299.274 48.896H306.138C308.282 48.896 309.914 48.432 311.034 47.504C312.186 46.544 312.762 45.168 312.762 43.376C312.762 41.68 312.202 40.368 311.082 39.44C309.962 38.512 308.266 38.048 305.994 38.048H299.274V48.896ZM299.274 64.304H306.378C308.682 64.304 310.458 63.792 311.706 62.768C312.954 61.712 313.578 60.24 313.578 58.352C313.578 56.464 312.922 55.008 311.61 53.984C310.298 52.928 308.522 52.4 306.282 52.4H299.274V64.304ZM330.887 68.576C328.647 68.576 326.647 68.112 324.887 67.184C323.159 66.256 321.783 64.848 320.759 62.96C319.767 61.04 319.271 58.64 319.271 55.76V34.4H323.303V55.904C323.303 58.784 324.007 61.008 325.415 62.576C326.823 64.144 328.679 64.928 330.983 64.928C333.287 64.928 335.127 64.144 336.503 62.576C337.879 61.008 338.567 58.784 338.567 55.904V34.4H342.599V55.76C342.599 58.64 342.087 61.04 341.063 62.96C340.039 64.848 338.647 66.256 336.887 67.184C335.127 68.112 333.127 68.576 330.887 68.576ZM344.164 68V34.4H351.22C356.724 34.4 360.788 35.904 363.412 38.912C366.068 41.92 367.396 46.016 367.396 51.2C367.396 56.384 366.068 60.48 363.412 63.488C360.788 66.496 356.724 68 351.22 68H344.164ZM348.196 64.304H351.124C354.068 64.304 356.42 63.76 358.18 62.672C359.972 61.584 361.268 60.064 362.068 58.112C362.868 56.16 363.268 53.856 363.268 51.2C363.268 48.544 362.868 46.24 362.068 44.288C361.268 42.336 359.972 40.816 358.18 39.728C356.42 38.64 354.068 38.096 351.124 38.096H348.196V64.304ZM368.625 68V34.4H375.681C381.185 34.4 385.249 35.904 387.873 38.912C390.529 41.92 391.857 46.016 391.857 51.2C391.857 56.384 390.529 60.48 387.873 63.488C385.249 66.496 381.185 68 375.681 68H368.625ZM372.657 64.304H375.585C378.529 64.304 380.881 63.76 382.641 62.672C384.433 61.584 385.729 60.064 386.529 58.112C387.329 56.16 387.729 53.856 387.729 51.2C387.729 48.544 387.329 46.24 386.529 44.288C385.729 42.336 384.433 40.816 382.641 39.728C380.881 38.64 378.529 38.096 375.585 38.096H372.657V64.304ZM402.303 68V54.8L391.407 34.4H395.967L404.319 50.72L412.671 34.4H417.231L406.335 54.8V68H402.303Z" fill="#D9D9D9"/>
<path d="M23.66 98L28.04 84H29.98L34.34 98H32.5L31.48 94.52H26.52L25.5 98H23.66ZM28.96 86.36L26.94 93.12H31.06L29.04 86.36H28.96ZM44.9444 102.4V88.08H46.3044L46.5044 89.72H46.6244C46.8777 89.1867 47.2844 88.74 47.8444 88.38C48.4044 88.02 49.0644 87.84 49.8244 87.84C50.6244 87.84 51.3444 88.04 51.9844 88.44C52.6377 88.84 53.151 89.4333 53.5244 90.22C53.8977 90.9933 54.0844 91.94 54.0844 93.06C54.0844 94.1667 53.891 95.1067 53.5044 95.88C53.131 96.6533 52.611 97.24 51.9444 97.64C51.291 98.04 50.5377 98.24 49.6844 98.24C48.9244 98.24 48.2777 98.08 47.7444 97.76C47.2244 97.4267 46.851 97.04 46.6244 96.6V102.4H44.9444ZM49.4844 96.64C50.3244 96.64 51.0177 96.3467 51.5644 95.76C52.111 95.16 52.3844 94.2533 52.3844 93.04C52.3844 91.8267 52.111 90.9267 51.5644 90.34C51.0177 89.74 50.3244 89.44 49.4844 89.44C48.6444 89.44 47.951 89.74 47.4044 90.34C46.8577 90.9267 46.5844 91.8267 46.5844 93.04C46.5844 94.2533 46.8577 95.16 47.4044 95.76C47.951 96.3467 48.6444 96.64 49.4844 96.64ZM55.2566 98V96.56H57.7966V90.02C57.7966 89.6867 57.6366 89.52 57.3166 89.52H55.5166V88.08H57.9366C58.3766 88.08 58.7299 88.2 58.9966 88.44C59.2632 88.68 59.3966 89.0333 59.3966 89.5V89.92H59.4766C59.6366 89.2533 59.9366 88.74 60.3766 88.38C60.8299 88.02 61.4566 87.84 62.2566 87.84H64.0766V89.62H62.0166C61.2032 89.62 60.5766 89.8933 60.1366 90.44C59.6966 90.9733 59.4766 91.66 59.4766 92.5V96.56H62.5966V98H55.2566ZM69.7687 98.24C68.8354 98.24 68.0087 98.0267 67.2887 97.6C66.5687 97.1733 66.0021 96.5733 65.5887 95.8C65.1754 95.0133 64.9687 94.0933 64.9687 93.04C64.9687 91.9867 65.1754 91.0733 65.5887 90.3C66.0021 89.5133 66.5687 88.9067 67.2887 88.48C68.0087 88.0533 68.8354 87.84 69.7687 87.84C70.7021 87.84 71.5287 88.0533 72.2487 88.48C72.9687 88.9067 73.5354 89.5133 73.9487 90.3C74.3621 91.0733 74.5687 91.9867 74.5687 93.04C74.5687 94.0933 74.3621 95.0133 73.9487 95.8C73.5354 96.5733 72.9687 97.1733 72.2487 97.6C71.5287 98.0267 70.7021 98.24 69.7687 98.24ZM69.7687 96.64C70.3421 96.64 70.8621 96.5133 71.3287 96.26C71.7954 96.0067 72.1621 95.6133 72.4287 95.08C72.7087 94.5467 72.8487 93.8667 72.8487 93.04C72.8487 92.2133 72.7087 91.5333 72.4287 91C72.1621 90.4667 71.7954 90.0733 71.3287 89.82C70.8621 89.5667 70.3421 89.44 69.7687 89.44C69.2087 89.44 68.6954 89.5667 68.2287 89.82C67.7621 90.0733 67.3887 90.4667 67.1087 91C66.8287 91.5333 66.6887 92.2133 66.6887 93.04C66.6887 94.28 66.9887 95.1933 67.5887 95.78C68.1887 96.3533 68.9154 96.64 69.7687 96.64ZM80.3609 86.32C79.9743 86.32 79.6409 86.1867 79.3609 85.92C79.0943 85.6533 78.9609 85.3333 78.9609 84.96C78.9609 84.5733 79.0943 84.2533 79.3609 84C79.6409 83.7333 79.9743 83.6 80.3609 83.6C80.7609 83.6 81.0943 83.7333 81.3609 84C81.6276 84.2533 81.7609 84.5733 81.7609 84.96C81.7609 85.3333 81.6276 85.6533 81.3609 85.92C81.0943 86.1867 80.7609 86.32 80.3609 86.32ZM75.1809 102.4V100.96H79.1409C79.4743 100.96 79.6409 100.787 79.6409 100.44V90.02C79.6409 89.6867 79.4743 89.52 79.1409 89.52H76.7409V88.08H79.5409C80.7276 88.08 81.3209 88.6733 81.3209 89.86V100.62C81.3209 101.807 80.7276 102.4 79.5409 102.4H75.1809ZM90.2531 98.24C89.3198 98.24 88.4931 98.0267 87.7731 97.6C87.0665 97.16 86.5065 96.5533 86.0931 95.78C85.6798 94.9933 85.4731 94.08 85.4731 93.04C85.4731 92 85.6731 91.0933 86.0731 90.32C86.4865 89.5333 87.0531 88.9267 87.7731 88.5C88.4931 88.06 89.3331 87.84 90.2931 87.84C91.2531 87.84 92.0731 88.06 92.7531 88.5C93.4331 88.9267 93.9531 89.4933 94.3131 90.2C94.6731 90.9067 94.8531 91.6667 94.8531 92.48C94.8531 92.6267 94.8465 92.7733 94.8331 92.92C94.8331 93.0667 94.8331 93.2333 94.8331 93.42H87.1331C87.1731 94.1533 87.3398 94.7667 87.6331 95.26C87.9398 95.74 88.3198 96.1 88.7731 96.34C89.2398 96.58 89.7331 96.7 90.2531 96.7C90.9865 96.7 91.5598 96.5467 91.9731 96.24C92.3865 95.9333 92.6998 95.5067 92.9131 94.96H94.5731C94.3465 95.88 93.8731 96.66 93.1531 97.3C92.4331 97.9267 91.4665 98.24 90.2531 98.24ZM90.2531 89.34C89.4798 89.34 88.7998 89.5733 88.2131 90.04C87.6398 90.5067 87.2865 91.16 87.1531 92H93.1931C93.1398 91.1733 92.8398 90.5267 92.2931 90.06C91.7598 89.58 91.0798 89.34 90.2531 89.34ZM100.505 98.24C99.612 98.24 98.812 98.0333 98.1053 97.62C97.412 97.2067 96.8586 96.6133 96.4453 95.84C96.032 95.0533 95.8253 94.12 95.8253 93.04C95.8253 91.96 96.032 91.0333 96.4453 90.26C96.8586 89.4733 97.4186 88.8733 98.1253 88.46C98.8453 88.0467 99.6386 87.84 100.505 87.84C101.732 87.84 102.712 88.1467 103.445 88.76C104.179 89.3733 104.645 90.1933 104.845 91.22H103.125C102.965 90.6733 102.659 90.24 102.205 89.92C101.752 89.5867 101.179 89.42 100.485 89.42C99.9786 89.42 99.4986 89.5533 99.0453 89.82C98.592 90.0867 98.2253 90.4867 97.9453 91.02C97.6653 91.5533 97.5253 92.2267 97.5253 93.04C97.5253 93.8533 97.6653 94.5333 97.9453 95.08C98.2253 95.6133 98.592 96.0133 99.0453 96.28C99.4986 96.5467 99.9786 96.68 100.485 96.68C101.219 96.68 101.799 96.5133 102.225 96.18C102.665 95.8467 102.965 95.4067 103.125 94.86H104.845C104.592 95.9133 104.092 96.74 103.345 97.34C102.612 97.94 101.665 98.24 100.505 98.24ZM111.577 98C110.671 98 109.957 97.78 109.437 97.34C108.917 96.9 108.657 96.1067 108.657 94.96V89.52H106.137V88.08H107.637C108.317 88.08 108.711 87.7467 108.817 87.08L109.097 85.54H110.337V88.08H114.297V89.52H110.337V94.96C110.337 95.52 110.464 95.9133 110.717 96.14C110.984 96.3667 111.437 96.48 112.077 96.48H114.297V98H111.577ZM130.082 98.24C129.295 98.24 128.642 98.1 128.122 97.82C127.602 97.54 127.215 97.1733 126.962 96.72C126.709 96.2533 126.582 95.7467 126.582 95.2C126.582 94.1867 126.949 93.42 127.682 92.9C128.429 92.3667 129.422 92.1 130.662 92.1H133.382V91.9C133.382 90.1667 132.589 89.3 131.002 89.3C130.362 89.3 129.822 89.44 129.382 89.72C128.955 90 128.682 90.44 128.562 91.04H126.842C126.909 90.3733 127.129 89.8 127.502 89.32C127.889 88.84 128.382 88.4733 128.982 88.22C129.582 87.9667 130.255 87.84 131.002 87.84C132.415 87.84 133.442 88.2133 134.082 88.96C134.735 89.6933 135.062 90.6733 135.062 91.9V98H133.622L133.482 96.46H133.342C133.049 96.94 132.655 97.36 132.162 97.72C131.682 98.0667 130.989 98.24 130.082 98.24ZM130.382 96.76C131.022 96.76 131.562 96.6067 132.002 96.3C132.455 95.9933 132.795 95.5867 133.022 95.08C133.262 94.5733 133.382 94.02 133.382 93.42H130.802C129.895 93.42 129.255 93.5733 128.882 93.88C128.522 94.1867 128.342 94.5933 128.342 95.1C128.342 95.62 128.515 96.0267 128.862 96.32C129.209 96.6133 129.715 96.76 130.382 96.76ZM140.774 98.24C139.934 98.24 139.181 98.04 138.514 97.64C137.861 97.24 137.347 96.6533 136.974 95.88C136.601 95.0933 136.414 94.14 136.414 93.02C136.414 91.9133 136.601 90.9733 136.974 90.2C137.347 89.4267 137.861 88.84 138.514 88.44C139.181 88.04 139.934 87.84 140.774 87.84C141.561 87.84 142.207 87.9933 142.714 88.3C143.234 88.6067 143.621 89.0067 143.874 89.5V83.6H145.554V98H144.174L143.994 96.46H143.874C143.607 97.0067 143.214 97.44 142.694 97.76C142.174 98.08 141.534 98.24 140.774 98.24ZM140.994 96.64C141.834 96.64 142.527 96.3467 143.074 95.76C143.621 95.16 143.894 94.2533 143.894 93.04C143.894 91.8267 143.621 90.9267 143.074 90.34C142.527 89.74 141.834 89.44 140.994 89.44C140.154 89.44 139.461 89.74 138.914 90.34C138.381 90.9267 138.114 91.8267 138.114 93.04C138.114 94.2533 138.381 95.16 138.914 95.76C139.461 96.3467 140.154 96.64 140.994 96.64ZM150.326 98L145.966 88.08H147.886L151.306 96.16L154.746 88.08H156.646L152.266 98H150.326ZM160.658 98.24C159.872 98.24 159.218 98.1 158.698 97.82C158.178 97.54 157.792 97.1733 157.538 96.72C157.285 96.2533 157.158 95.7467 157.158 95.2C157.158 94.1867 157.525 93.42 158.258 92.9C159.005 92.3667 159.998 92.1 161.238 92.1H163.958V91.9C163.958 90.1667 163.165 89.3 161.578 89.3C160.938 89.3 160.398 89.44 159.958 89.72C159.532 90 159.258 90.44 159.138 91.04H157.418C157.485 90.3733 157.705 89.8 158.078 89.32C158.465 88.84 158.958 88.4733 159.558 88.22C160.158 87.9667 160.832 87.84 161.578 87.84C162.992 87.84 164.018 88.2133 164.658 88.96C165.312 89.6933 165.638 90.6733 165.638 91.9V98H164.198L164.058 96.46H163.918C163.625 96.94 163.232 97.36 162.738 97.72C162.258 98.0667 161.565 98.24 160.658 98.24ZM160.958 96.76C161.598 96.76 162.138 96.6067 162.578 96.3C163.032 95.9933 163.372 95.5867 163.598 95.08C163.838 94.5733 163.958 94.02 163.958 93.42H161.378C160.472 93.42 159.832 93.5733 159.458 93.88C159.098 94.1867 158.918 94.5933 158.918 95.1C158.918 95.62 159.092 96.0267 159.438 96.32C159.785 96.6133 160.292 96.76 160.958 96.76ZM167.451 98V88.08H168.851L169.031 89.58H169.131C169.397 89.1 169.817 88.6933 170.391 88.36C170.964 88.0133 171.624 87.84 172.371 87.84C173.584 87.84 174.491 88.2 175.091 88.92C175.704 89.64 176.011 90.68 176.011 92.04V98H174.331V92.24C174.331 91.36 174.137 90.6733 173.751 90.18C173.364 89.6733 172.764 89.42 171.951 89.42C171.164 89.42 170.497 89.6933 169.951 90.24C169.404 90.7733 169.131 91.5467 169.131 92.56V98H167.451ZM182.043 98.24C181.149 98.24 180.349 98.0333 179.643 97.62C178.949 97.2067 178.396 96.6133 177.983 95.84C177.569 95.0533 177.363 94.12 177.363 93.04C177.363 91.96 177.569 91.0333 177.983 90.26C178.396 89.4733 178.956 88.8733 179.663 88.46C180.383 88.0467 181.176 87.84 182.043 87.84C183.269 87.84 184.249 88.1467 184.983 88.76C185.716 89.3733 186.183 90.1933 186.383 91.22H184.663C184.503 90.6733 184.196 90.24 183.743 89.92C183.289 89.5867 182.716 89.42 182.023 89.42C181.516 89.42 181.036 89.5533 180.583 89.82C180.129 90.0867 179.763 90.4867 179.483 91.02C179.203 91.5533 179.063 92.2267 179.063 93.04C179.063 93.8533 179.203 94.5333 179.483 95.08C179.763 95.6133 180.129 96.0133 180.583 96.28C181.036 96.5467 181.516 96.68 182.023 96.68C182.756 96.68 183.336 96.5133 183.763 96.18C184.203 95.8467 184.503 95.4067 184.663 94.86H186.383C186.129 95.9133 185.629 96.74 184.883 97.34C184.149 97.94 183.203 98.24 182.043 98.24ZM191.955 86.32C191.555 86.32 191.222 86.1867 190.955 85.92C190.688 85.6533 190.555 85.3333 190.555 84.96C190.555 84.5733 190.688 84.2533 190.955 84C191.222 83.7333 191.555 83.6 191.955 83.6C192.342 83.6 192.668 83.7333 192.935 84C193.215 84.2533 193.355 84.5733 193.355 84.96C193.355 85.3333 193.215 85.6533 192.935 85.92C192.668 86.1867 192.342 86.32 191.955 86.32ZM188.075 98V96.56H191.235V90.02C191.235 89.6867 191.068 89.52 190.735 89.52H188.415V88.08H191.135C192.322 88.08 192.915 88.6733 192.915 89.86V96.56H196.075V98H188.075ZM198.027 98V88.08H199.427L199.607 89.58H199.707C199.974 89.1 200.394 88.6933 200.967 88.36C201.541 88.0133 202.201 87.84 202.947 87.84C204.161 87.84 205.067 88.2 205.667 88.92C206.281 89.64 206.587 90.68 206.587 92.04V98H204.907V92.24C204.907 91.36 204.714 90.6733 204.327 90.18C203.941 89.6733 203.341 89.42 202.527 89.42C201.741 89.42 201.074 89.6933 200.527 90.24C199.981 90.7733 199.707 91.5467 199.707 92.56V98H198.027ZM212.279 95.08C211.586 95.08 210.966 94.9533 210.419 94.7L209.739 95.52C209.593 95.72 209.553 95.92 209.619 96.12C209.699 96.3067 209.893 96.4 210.199 96.4H212.819C214.006 96.4 214.966 96.6333 215.699 97.1C216.433 97.5533 216.799 98.28 216.799 99.28C216.799 99.88 216.646 100.433 216.339 100.94C216.033 101.447 215.546 101.853 214.879 102.16C214.226 102.48 213.366 102.64 212.299 102.64C210.913 102.64 209.799 102.38 208.959 101.86C208.119 101.34 207.699 100.547 207.699 99.48C207.699 99.0933 207.793 98.7333 207.979 98.4C208.179 98.08 208.426 97.7933 208.719 97.54C208.333 97.3 208.093 96.94 207.999 96.46C207.919 95.98 208.066 95.5067 208.439 95.04L209.339 93.92C208.699 93.2533 208.379 92.4333 208.379 91.46C208.379 90.82 208.533 90.2267 208.839 89.68C209.146 89.12 209.586 88.6733 210.159 88.34C210.746 88.0067 211.453 87.84 212.279 87.84C212.813 87.84 213.306 87.92 213.759 88.08H217.479V89.34L215.619 89.4V89.54C215.966 90.1133 216.139 90.7533 216.139 91.46C216.139 92.1 215.986 92.7 215.679 93.26C215.386 93.8067 214.946 94.2467 214.359 94.58C213.786 94.9133 213.093 95.08 212.279 95.08ZM212.279 93.64C212.933 93.64 213.466 93.4467 213.879 93.06C214.306 92.6733 214.519 92.14 214.519 91.46C214.519 90.78 214.306 90.2533 213.879 89.88C213.466 89.4933 212.933 89.3 212.279 89.3C211.613 89.3 211.066 89.4933 210.639 89.88C210.213 90.2533 209.999 90.78 209.999 91.46C209.999 92.14 210.213 92.6733 210.639 93.06C211.066 93.4467 211.613 93.64 212.279 93.64ZM209.359 99.42C209.359 100.007 209.633 100.447 210.179 100.74C210.726 101.033 211.433 101.18 212.299 101.18C213.139 101.18 213.819 101.013 214.339 100.68C214.873 100.347 215.139 99.9 215.139 99.34C215.139 98.9 214.953 98.5267 214.579 98.22C214.206 97.9267 213.519 97.78 212.519 97.78H210.259C209.659 98.22 209.359 98.7667 209.359 99.42ZM233.884 98C232.977 98 232.264 97.78 231.744 97.34C231.224 96.9 230.964 96.1067 230.964 94.96V89.52H228.444V88.08H229.944C230.624 88.08 231.017 87.7467 231.124 87.08L231.404 85.54H232.644V88.08H236.604V89.52H232.644V94.96C232.644 95.52 232.77 95.9133 233.024 96.14C233.29 96.3667 233.744 96.48 234.384 96.48H236.604V98H233.884ZM243.136 98.24C242.203 98.24 241.376 98.0267 240.656 97.6C239.949 97.16 239.389 96.5533 238.976 95.78C238.563 94.9933 238.356 94.08 238.356 93.04C238.356 92 238.556 91.0933 238.956 90.32C239.369 89.5333 239.936 88.9267 240.656 88.5C241.376 88.06 242.216 87.84 243.176 87.84C244.136 87.84 244.956 88.06 245.636 88.5C246.316 88.9267 246.836 89.4933 247.196 90.2C247.556 90.9067 247.736 91.6667 247.736 92.48C247.736 92.6267 247.729 92.7733 247.716 92.92C247.716 93.0667 247.716 93.2333 247.716 93.42H240.016C240.056 94.1533 240.223 94.7667 240.516 95.26C240.823 95.74 241.203 96.1 241.656 96.34C242.123 96.58 242.616 96.7 243.136 96.7C243.869 96.7 244.443 96.5467 244.856 96.24C245.269 95.9333 245.583 95.5067 245.796 94.96H247.456C247.229 95.88 246.756 96.66 246.036 97.3C245.316 97.9267 244.349 98.24 243.136 98.24ZM243.136 89.34C242.363 89.34 241.683 89.5733 241.096 90.04C240.523 90.5067 240.169 91.16 240.036 92H246.076C246.023 91.1733 245.723 90.5267 245.176 90.06C244.643 89.58 243.963 89.34 243.136 89.34ZM253.388 98.24C252.495 98.24 251.695 98.0333 250.988 97.62C250.295 97.2067 249.741 96.6133 249.328 95.84C248.915 95.0533 248.708 94.12 248.708 93.04C248.708 91.96 248.915 91.0333 249.328 90.26C249.741 89.4733 250.301 88.8733 251.008 88.46C251.728 88.0467 252.521 87.84 253.388 87.84C254.615 87.84 255.595 88.1467 256.328 88.76C257.061 89.3733 257.528 90.1933 257.728 91.22H256.008C255.848 90.6733 255.541 90.24 255.088 89.92C254.635 89.5867 254.061 89.42 253.368 89.42C252.861 89.42 252.381 89.5533 251.928 89.82C251.475 90.0867 251.108 90.4867 250.828 91.02C250.548 91.5533 250.408 92.2267 250.408 93.04C250.408 93.8533 250.548 94.5333 250.828 95.08C251.108 95.6133 251.475 96.0133 251.928 96.28C252.381 96.5467 252.861 96.68 253.368 96.68C254.101 96.68 254.681 96.5133 255.108 96.18C255.548 95.8467 255.848 95.4067 256.008 94.86H257.728C257.475 95.9133 256.975 96.74 256.228 97.34C255.495 97.94 254.548 98.24 253.388 98.24ZM259.08 98V83.6H260.76V89.58C261.027 89.0733 261.467 88.66 262.08 88.34C262.694 88.0067 263.367 87.84 264.1 87.84C265.314 87.84 266.234 88.2067 266.86 88.94C267.5 89.6733 267.82 90.7 267.82 92.02V98H266.14V92.24C266.14 91.3467 265.92 90.6533 265.48 90.16C265.054 89.6667 264.454 89.42 263.68 89.42C263.147 89.42 262.66 89.54 262.22 89.78C261.78 90.02 261.427 90.3733 261.16 90.84C260.894 91.3067 260.76 91.88 260.76 92.56V98H259.08ZM279.645 102.4V100.86H280.865C281.371 100.86 281.731 100.76 281.945 100.56C282.158 100.36 282.265 100.007 282.265 99.5V89.52H279.805V88.08H282.265V86.5C282.265 85.4733 282.511 84.7333 283.005 84.28C283.498 83.8267 284.245 83.6 285.245 83.6H287.625V85.12H285.345C284.851 85.12 284.491 85.2267 284.265 85.44C284.051 85.64 283.945 85.9933 283.945 86.5V88.08H287.625V89.52H283.945V99.5C283.945 100.527 283.698 101.267 283.205 101.72C282.711 102.173 281.971 102.4 280.985 102.4H279.645ZM293.997 98.24C293.064 98.24 292.237 98.0267 291.517 97.6C290.797 97.1733 290.23 96.5733 289.817 95.8C289.404 95.0133 289.197 94.0933 289.197 93.04C289.197 91.9867 289.404 91.0733 289.817 90.3C290.23 89.5133 290.797 88.9067 291.517 88.48C292.237 88.0533 293.064 87.84 293.997 87.84C294.93 87.84 295.757 88.0533 296.477 88.48C297.197 88.9067 297.764 89.5133 298.177 90.3C298.59 91.0733 298.797 91.9867 298.797 93.04C298.797 94.0933 298.59 95.0133 298.177 95.8C297.764 96.5733 297.197 97.1733 296.477 97.6C295.757 98.0267 294.93 98.24 293.997 98.24ZM293.997 96.64C294.57 96.64 295.09 96.5133 295.557 96.26C296.024 96.0067 296.39 95.6133 296.657 95.08C296.937 94.5467 297.077 93.8667 297.077 93.04C297.077 92.2133 296.937 91.5333 296.657 91C296.39 90.4667 296.024 90.0733 295.557 89.82C295.09 89.5667 294.57 89.44 293.997 89.44C293.437 89.44 292.924 89.5667 292.457 89.82C291.99 90.0733 291.617 90.4667 291.337 91C291.057 91.5333 290.917 92.2133 290.917 93.04C290.917 94.28 291.217 95.1933 291.817 95.78C292.417 96.3533 293.144 96.64 293.997 96.64ZM299.869 98V96.56H302.409V90.02C302.409 89.6867 302.249 89.52 301.929 89.52H300.129V88.08H302.549C302.989 88.08 303.342 88.2 303.609 88.44C303.876 88.68 304.009 89.0333 304.009 89.5V89.92H304.089C304.249 89.2533 304.549 88.74 304.989 88.38C305.442 88.02 306.069 87.84 306.869 87.84H308.689V89.62H306.629C305.816 89.62 305.189 89.8933 304.749 90.44C304.309 90.9733 304.089 91.66 304.089 92.5V96.56H307.209V98H299.869ZM324.973 86.32C324.587 86.32 324.253 86.1867 323.973 85.92C323.707 85.6533 323.573 85.3333 323.573 84.96C323.573 84.5733 323.707 84.2533 323.973 84C324.253 83.7333 324.587 83.6 324.973 83.6C325.373 83.6 325.707 83.7333 325.973 84C326.24 84.2533 326.373 84.5733 326.373 84.96C326.373 85.3333 326.24 85.6533 325.973 85.92C325.707 86.1867 325.373 86.32 324.973 86.32ZM319.793 102.4V100.96H323.753C324.087 100.96 324.253 100.787 324.253 100.44V90.02C324.253 89.6867 324.087 89.52 323.753 89.52H321.353V88.08H324.153C325.34 88.08 325.933 88.6733 325.933 89.86V100.62C325.933 101.807 325.34 102.4 324.153 102.4H319.793ZM334.766 98.24C333.832 98.24 333.006 98.0267 332.286 97.6C331.566 97.1733 330.999 96.5733 330.586 95.8C330.172 95.0133 329.966 94.0933 329.966 93.04C329.966 91.9867 330.172 91.0733 330.586 90.3C330.999 89.5133 331.566 88.9067 332.286 88.48C333.006 88.0533 333.832 87.84 334.766 87.84C335.699 87.84 336.526 88.0533 337.246 88.48C337.966 88.9067 338.532 89.5133 338.946 90.3C339.359 91.0733 339.566 91.9867 339.566 93.04C339.566 94.0933 339.359 95.0133 338.946 95.8C338.532 96.5733 337.966 97.1733 337.246 97.6C336.526 98.0267 335.699 98.24 334.766 98.24ZM334.766 96.64C335.339 96.64 335.859 96.5133 336.326 96.26C336.792 96.0067 337.159 95.6133 337.426 95.08C337.706 94.5467 337.846 93.8667 337.846 93.04C337.846 92.2133 337.706 91.5333 337.426 91C337.159 90.4667 336.792 90.0733 336.326 89.82C335.859 89.5667 335.339 89.44 334.766 89.44C334.206 89.44 333.692 89.5667 333.226 89.82C332.759 90.0733 332.386 90.4667 332.106 91C331.826 91.5333 331.686 92.2133 331.686 93.04C331.686 94.28 331.986 95.1933 332.586 95.78C333.186 96.3533 333.912 96.64 334.766 96.64ZM344.258 98.24C343.058 98.24 342.151 97.88 341.538 97.16C340.924 96.44 340.618 95.4 340.618 94.04V88.08H342.298V93.84C342.298 94.72 342.491 95.4133 342.878 95.92C343.278 96.4133 343.878 96.66 344.678 96.66C345.478 96.66 346.151 96.3933 346.698 95.86C347.244 95.3133 347.518 94.5333 347.518 93.52V88.08H349.198V98H347.798L347.618 96.5H347.518C347.251 96.98 346.831 97.3933 346.258 97.74C345.684 98.0733 345.018 98.24 344.258 98.24ZM350.83 98V96.56H353.37V90.02C353.37 89.6867 353.21 89.52 352.89 89.52H351.09V88.08H353.51C353.95 88.08 354.303 88.2 354.57 88.44C354.837 88.68 354.97 89.0333 354.97 89.5V89.92H355.05C355.21 89.2533 355.51 88.74 355.95 88.38C356.403 88.02 357.03 87.84 357.83 87.84H359.65V89.62H357.59C356.777 89.62 356.15 89.8933 355.71 90.44C355.27 90.9733 355.05 91.66 355.05 92.5V96.56H358.17V98H350.83ZM361.102 98V88.08H362.502L362.682 89.58H362.782C363.049 89.1 363.469 88.6933 364.042 88.36C364.616 88.0133 365.276 87.84 366.022 87.84C367.236 87.84 368.142 88.2 368.742 88.92C369.356 89.64 369.662 90.68 369.662 92.04V98H367.982V92.24C367.982 91.36 367.789 90.6733 367.402 90.18C367.016 89.6733 366.416 89.42 365.602 89.42C364.816 89.42 364.149 89.6933 363.602 90.24C363.056 90.7733 362.782 91.5467 362.782 92.56V98H361.102ZM374.694 98.24C373.908 98.24 373.254 98.1 372.734 97.82C372.214 97.54 371.828 97.1733 371.574 96.72C371.321 96.2533 371.194 95.7467 371.194 95.2C371.194 94.1867 371.561 93.42 372.294 92.9C373.041 92.3667 374.034 92.1 375.274 92.1H377.994V91.9C377.994 90.1667 377.201 89.3 375.614 89.3C374.974 89.3 374.434 89.44 373.994 89.72C373.568 90 373.294 90.44 373.174 91.04H371.454C371.521 90.3733 371.741 89.8 372.114 89.32C372.501 88.84 372.994 88.4733 373.594 88.22C374.194 87.9667 374.868 87.84 375.614 87.84C377.028 87.84 378.054 88.2133 378.694 88.96C379.348 89.6933 379.674 90.6733 379.674 91.9V98H378.234L378.094 96.46H377.954C377.661 96.94 377.268 97.36 376.774 97.72C376.294 98.0667 375.601 98.24 374.694 98.24ZM374.994 96.76C375.634 96.76 376.174 96.6067 376.614 96.3C377.068 95.9933 377.408 95.5867 377.634 95.08C377.874 94.5733 377.994 94.02 377.994 93.42H375.414C374.508 93.42 373.868 93.5733 373.494 93.88C373.134 94.1867 372.954 94.5933 372.954 95.1C372.954 95.62 373.128 96.0267 373.474 96.32C373.821 96.6133 374.328 96.76 374.994 96.76ZM381.227 98V96.56H384.607V85.54C384.607 85.2067 384.44 85.04 384.107 85.04H381.587V83.6H384.507C385.08 83.6 385.52 83.7533 385.827 84.06C386.133 84.3667 386.287 84.8067 386.287 85.38V96.56H389.667V98H381.227ZM395.799 86.32C395.399 86.32 395.065 86.1867 394.799 85.92C394.532 85.6533 394.399 85.3333 394.399 84.96C394.399 84.5733 394.532 84.2533 394.799 84C395.065 83.7333 395.399 83.6 395.799 83.6C396.185 83.6 396.512 83.7333 396.779 84C397.059 84.2533 397.199 84.5733 397.199 84.96C397.199 85.3333 397.059 85.6533 396.779 85.92C396.512 86.1867 396.185 86.32 395.799 86.32ZM391.919 98V96.56H395.079V90.02C395.079 89.6867 394.912 89.52 394.579 89.52H392.259V88.08H394.979C396.165 88.08 396.759 88.6733 396.759 89.86V96.56H399.919V98H391.919ZM406.211 98.24C404.944 98.24 403.918 97.9467 403.131 97.36C402.358 96.76 401.924 95.94 401.831 94.9H403.571C403.651 95.4467 403.918 95.8933 404.371 96.24C404.838 96.5867 405.464 96.76 406.251 96.76C406.998 96.76 407.551 96.6 407.911 96.28C408.284 95.96 408.471 95.5933 408.471 95.18C408.471 94.62 408.251 94.24 407.811 94.04C407.371 93.8267 406.711 93.6667 405.831 93.56C404.778 93.44 403.904 93.1533 403.211 92.7C402.518 92.2467 402.171 91.5667 402.171 90.66C402.171 89.8467 402.511 89.1733 403.191 88.64C403.871 88.1067 404.798 87.84 405.971 87.84C407.131 87.84 408.044 88.1067 408.711 88.64C409.378 89.16 409.758 89.9067 409.851 90.88H408.191C408.151 90.4 407.918 90.02 407.491 89.74C407.078 89.4467 406.558 89.3 405.931 89.3C405.278 89.3 404.771 89.4267 404.411 89.68C404.051 89.92 403.871 90.24 403.871 90.64C403.871 91.04 404.071 91.3733 404.471 91.64C404.884 91.8933 405.531 92.06 406.411 92.14C407.104 92.22 407.738 92.3533 408.311 92.54C408.884 92.7267 409.338 93.02 409.671 93.42C410.018 93.82 410.191 94.38 410.191 95.1C410.204 95.7 410.038 96.24 409.691 96.72C409.358 97.1867 408.891 97.56 408.291 97.84C407.691 98.1067 406.998 98.24 406.211 98.24ZM411.043 98V88.08H412.423L412.603 89.24H412.703C412.876 88.84 413.136 88.5067 413.483 88.24C413.843 87.9733 414.276 87.84 414.783 87.84C415.29 87.84 415.716 87.9667 416.063 88.22C416.423 88.46 416.683 88.8 416.843 89.24H416.923C417.096 88.84 417.376 88.5067 417.763 88.24C418.15 87.9733 418.616 87.84 419.163 87.84C419.923 87.84 420.49 88.1 420.863 88.62C421.25 89.1267 421.443 89.8067 421.443 90.66V98H419.803V90.92C419.803 90.44 419.703 90.06 419.503 89.78C419.316 89.5 419.01 89.36 418.583 89.36C418.143 89.36 417.783 89.5267 417.503 89.86C417.223 90.1933 417.083 90.6667 417.083 91.28V98H415.423V90.92C415.423 90.44 415.33 90.06 415.143 89.78C414.956 89.5 414.65 89.36 414.223 89.36C413.783 89.36 413.416 89.5267 413.123 89.86C412.843 90.1933 412.703 90.6667 412.703 91.28V98H411.043Z" fill="#D9D9D9"/>
<path d="M24.72 316V302H33.46V303.52H26.4V308.18H32.86V309.7H26.4V314.48H33.46V316H24.72ZM33.9322 316V306.08H35.3122L35.4922 307.24H35.5922C35.7655 306.84 36.0255 306.507 36.3722 306.24C36.7322 305.973 37.1655 305.84 37.6722 305.84C38.1789 305.84 38.6055 305.967 38.9522 306.22C39.3122 306.46 39.5722 306.8 39.7322 307.24H39.8122C39.9855 306.84 40.2655 306.507 40.6522 306.24C41.0389 305.973 41.5055 305.84 42.0522 305.84C42.8122 305.84 43.3789 306.1 43.7522 306.62C44.1389 307.127 44.3322 307.807 44.3322 308.66V316H42.6922V308.92C42.6922 308.44 42.5922 308.06 42.3922 307.78C42.2055 307.5 41.8989 307.36 41.4722 307.36C41.0322 307.36 40.6722 307.527 40.3922 307.86C40.1122 308.193 39.9722 308.667 39.9722 309.28V316H38.3122V308.92C38.3122 308.44 38.2189 308.06 38.0322 307.78C37.8455 307.5 37.5389 307.36 37.1122 307.36C36.6722 307.36 36.3055 307.527 36.0122 307.86C35.7322 308.193 35.5922 308.667 35.5922 309.28V316H33.9322ZM44.9444 320.4V306.08H46.3044L46.5044 307.72H46.6244C46.8777 307.187 47.2844 306.74 47.8444 306.38C48.4044 306.02 49.0644 305.84 49.8244 305.84C50.6244 305.84 51.3444 306.04 51.9844 306.44C52.6377 306.84 53.151 307.433 53.5244 308.22C53.8977 308.993 54.0844 309.94 54.0844 311.06C54.0844 312.167 53.891 313.107 53.5044 313.88C53.131 314.653 52.611 315.24 51.9444 315.64C51.291 316.04 50.5377 316.24 49.6844 316.24C48.9244 316.24 48.2777 316.08 47.7444 315.76C47.2244 315.427 46.851 315.04 46.6244 314.6V320.4H44.9444ZM49.4844 314.64C50.3244 314.64 51.0177 314.347 51.5644 313.76C52.111 313.16 52.3844 312.253 52.3844 311.04C52.3844 309.827 52.111 308.927 51.5644 308.34C51.0177 307.74 50.3244 307.44 49.4844 307.44C48.6444 307.44 47.951 307.74 47.4044 308.34C46.8577 308.927 46.5844 309.827 46.5844 311.04C46.5844 312.253 46.8577 313.16 47.4044 313.76C47.951 314.347 48.6444 314.64 49.4844 314.64ZM59.5766 316.24C58.6432 316.24 57.8166 316.027 57.0966 315.6C56.3766 315.173 55.8099 314.573 55.3966 313.8C54.9832 313.013 54.7766 312.093 54.7766 311.04C54.7766 309.987 54.9832 309.073 55.3966 308.3C55.8099 307.513 56.3766 306.907 57.0966 306.48C57.8166 306.053 58.6432 305.84 59.5766 305.84C60.5099 305.84 61.3366 306.053 62.0566 306.48C62.7766 306.907 63.3432 307.513 63.7566 308.3C64.1699 309.073 64.3766 309.987 64.3766 311.04C64.3766 312.093 64.1699 313.013 63.7566 313.8C63.3432 314.573 62.7766 315.173 62.0566 315.6C61.3366 316.027 60.5099 316.24 59.5766 316.24ZM59.5766 314.64C60.1499 314.64 60.6699 314.513 61.1366 314.26C61.6032 314.007 61.9699 313.613 62.2366 313.08C62.5166 312.547 62.6566 311.867 62.6566 311.04C62.6566 310.213 62.5166 309.533 62.2366 309C61.9699 308.467 61.6032 308.073 61.1366 307.82C60.6699 307.567 60.1499 307.44 59.5766 307.44C59.0166 307.44 58.5032 307.567 58.0366 307.82C57.5699 308.073 57.1966 308.467 56.9166 309C56.6366 309.533 56.4966 310.213 56.4966 311.04C56.4966 312.28 56.7966 313.193 57.3966 313.78C57.9966 314.353 58.7232 314.64 59.5766 314.64ZM66.2487 316L64.0487 306.08H65.7087L67.1287 313.5L68.8287 306.08H70.7087L72.4087 313.5L73.8287 306.08H75.5087L73.2887 316H71.5687L69.7687 308.3L67.9687 316H66.2487ZM80.0609 316.24C79.1276 316.24 78.3009 316.027 77.5809 315.6C76.8743 315.16 76.3143 314.553 75.9009 313.78C75.4876 312.993 75.2809 312.08 75.2809 311.04C75.2809 310 75.4809 309.093 75.8809 308.32C76.2943 307.533 76.8609 306.927 77.5809 306.5C78.3009 306.06 79.1409 305.84 80.1009 305.84C81.0609 305.84 81.8809 306.06 82.5609 306.5C83.2409 306.927 83.7609 307.493 84.1209 308.2C84.4809 308.907 84.6609 309.667 84.6609 310.48C84.6609 310.627 84.6543 310.773 84.6409 310.92C84.6409 311.067 84.6409 311.233 84.6409 311.42H76.9409C76.9809 312.153 77.1476 312.767 77.4409 313.26C77.7476 313.74 78.1276 314.1 78.5809 314.34C79.0476 314.58 79.5409 314.7 80.0609 314.7C80.7943 314.7 81.3676 314.547 81.7809 314.24C82.1943 313.933 82.5076 313.507 82.7209 312.96H84.3809C84.1543 313.88 83.6809 314.66 82.9609 315.3C82.2409 315.927 81.2743 316.24 80.0609 316.24ZM80.0609 307.34C79.2876 307.34 78.6076 307.573 78.0209 308.04C77.4476 308.507 77.0943 309.16 76.9609 310H83.0009C82.9476 309.173 82.6476 308.527 82.1009 308.06C81.5676 307.58 80.8876 307.34 80.0609 307.34ZM85.8331 316V314.56H88.3731V308.02C88.3731 307.687 88.2131 307.52 87.8931 307.52H86.0931V306.08H88.5131C88.9531 306.08 89.3065 306.2 89.5731 306.44C89.8398 306.68 89.9731 307.033 89.9731 307.5V307.92H90.0531C90.2131 307.253 90.5131 306.74 90.9531 306.38C91.4065 306.02 92.0331 305.84 92.8331 305.84H94.6531V307.62H92.5931C91.7798 307.62 91.1531 307.893 90.7131 308.44C90.2731 308.973 90.0531 309.66 90.0531 310.5V314.56H93.1731V316H85.8331ZM100.225 304.32C99.8253 304.32 99.492 304.187 99.2253 303.92C98.9586 303.653 98.8253 303.333 98.8253 302.96C98.8253 302.573 98.9586 302.253 99.2253 302C99.492 301.733 99.8253 301.6 100.225 301.6C100.612 301.6 100.939 301.733 101.205 302C101.485 302.253 101.625 302.573 101.625 302.96C101.625 303.333 101.485 303.653 101.205 303.92C100.939 304.187 100.612 304.32 100.225 304.32ZM96.3453 316V314.56H99.5053V308.02C99.5053 307.687 99.3386 307.52 99.0053 307.52H96.6853V306.08H99.4053C100.592 306.08 101.185 306.673 101.185 307.86V314.56H104.345V316H96.3453ZM106.297 316V306.08H107.697L107.877 307.58H107.977C108.244 307.1 108.664 306.693 109.237 306.36C109.811 306.013 110.471 305.84 111.217 305.84C112.431 305.84 113.337 306.2 113.937 306.92C114.551 307.64 114.857 308.68 114.857 310.04V316H113.177V310.24C113.177 309.36 112.984 308.673 112.597 308.18C112.211 307.673 111.611 307.42 110.797 307.42C110.011 307.42 109.344 307.693 108.797 308.24C108.251 308.773 107.977 309.547 107.977 310.56V316H106.297ZM120.55 313.08C119.856 313.08 119.236 312.953 118.69 312.7L118.01 313.52C117.863 313.72 117.823 313.92 117.89 314.12C117.97 314.307 118.163 314.4 118.47 314.4H121.09C122.276 314.4 123.236 314.633 123.97 315.1C124.703 315.553 125.07 316.28 125.07 317.28C125.07 317.88 124.916 318.433 124.61 318.94C124.303 319.447 123.816 319.853 123.15 320.16C122.496 320.48 121.636 320.64 120.57 320.64C119.183 320.64 118.07 320.38 117.23 319.86C116.39 319.34 115.97 318.547 115.97 317.48C115.97 317.093 116.063 316.733 116.25 316.4C116.45 316.08 116.696 315.793 116.99 315.54C116.603 315.3 116.363 314.94 116.27 314.46C116.19 313.98 116.336 313.507 116.71 313.04L117.61 311.92C116.97 311.253 116.65 310.433 116.65 309.46C116.65 308.82 116.803 308.227 117.11 307.68C117.416 307.12 117.856 306.673 118.43 306.34C119.016 306.007 119.723 305.84 120.55 305.84C121.083 305.84 121.576 305.92 122.03 306.08H125.75V307.34L123.89 307.4V307.54C124.236 308.113 124.41 308.753 124.41 309.46C124.41 310.1 124.256 310.7 123.95 311.26C123.656 311.807 123.216 312.247 122.63 312.58C122.056 312.913 121.363 313.08 120.55 313.08ZM120.55 311.64C121.203 311.64 121.736 311.447 122.15 311.06C122.576 310.673 122.79 310.14 122.79 309.46C122.79 308.78 122.576 308.253 122.15 307.88C121.736 307.493 121.203 307.3 120.55 307.3C119.883 307.3 119.336 307.493 118.91 307.88C118.483 308.253 118.27 308.78 118.27 309.46C118.27 310.14 118.483 310.673 118.91 311.06C119.336 311.447 119.883 311.64 120.55 311.64ZM117.63 317.42C117.63 318.007 117.903 318.447 118.45 318.74C118.996 319.033 119.703 319.18 120.57 319.18C121.41 319.18 122.09 319.013 122.61 318.68C123.143 318.347 123.41 317.9 123.41 317.34C123.41 316.9 123.223 316.527 122.85 316.22C122.476 315.927 121.79 315.78 120.79 315.78H118.53C117.93 316.22 117.63 316.767 117.63 317.42ZM140.274 316.24C139.487 316.24 138.834 316.1 138.314 315.82C137.794 315.54 137.407 315.173 137.154 314.72C136.901 314.253 136.774 313.747 136.774 313.2C136.774 312.187 137.141 311.42 137.874 310.9C138.621 310.367 139.614 310.1 140.854 310.1H143.574V309.9C143.574 308.167 142.781 307.3 141.194 307.3C140.554 307.3 140.014 307.44 139.574 307.72C139.147 308 138.874 308.44 138.754 309.04H137.034C137.101 308.373 137.321 307.8 137.694 307.32C138.081 306.84 138.574 306.473 139.174 306.22C139.774 305.967 140.447 305.84 141.194 305.84C142.607 305.84 143.634 306.213 144.274 306.96C144.927 307.693 145.254 308.673 145.254 309.9V316H143.814L143.674 314.46H143.534C143.241 314.94 142.847 315.36 142.354 315.72C141.874 316.067 141.181 316.24 140.274 316.24ZM140.574 314.76C141.214 314.76 141.754 314.607 142.194 314.3C142.647 313.993 142.987 313.587 143.214 313.08C143.454 312.573 143.574 312.02 143.574 311.42H140.994C140.087 311.42 139.447 311.573 139.074 311.88C138.714 312.187 138.534 312.593 138.534 313.1C138.534 313.62 138.707 314.027 139.054 314.32C139.401 314.613 139.907 314.76 140.574 314.76ZM146.986 316V314.56H149.526V308.02C149.526 307.687 149.366 307.52 149.046 307.52H147.246V306.08H149.666C150.106 306.08 150.46 306.2 150.726 306.44C150.993 306.68 151.126 307.033 151.126 307.5V307.92H151.206C151.366 307.253 151.666 306.74 152.106 306.38C152.56 306.02 153.186 305.84 153.986 305.84H155.806V307.62H153.746C152.933 307.62 152.306 307.893 151.866 308.44C151.426 308.973 151.206 309.66 151.206 310.5V314.56H154.326V316H146.986ZM161.658 316.24C160.765 316.24 159.965 316.033 159.258 315.62C158.565 315.207 158.012 314.613 157.598 313.84C157.185 313.053 156.978 312.12 156.978 311.04C156.978 309.96 157.185 309.033 157.598 308.26C158.012 307.473 158.572 306.873 159.278 306.46C159.998 306.047 160.792 305.84 161.658 305.84C162.885 305.84 163.865 306.147 164.598 306.76C165.332 307.373 165.798 308.193 165.998 309.22H164.278C164.118 308.673 163.812 308.24 163.358 307.92C162.905 307.587 162.332 307.42 161.638 307.42C161.132 307.42 160.652 307.553 160.198 307.82C159.745 308.087 159.378 308.487 159.098 309.02C158.818 309.553 158.678 310.227 158.678 311.04C158.678 311.853 158.818 312.533 159.098 313.08C159.378 313.613 159.745 314.013 160.198 314.28C160.652 314.547 161.132 314.68 161.638 314.68C162.372 314.68 162.952 314.513 163.378 314.18C163.818 313.847 164.118 313.407 164.278 312.86H165.998C165.745 313.913 165.245 314.74 164.498 315.34C163.765 315.94 162.818 316.24 161.658 316.24ZM167.351 316V301.6H169.031V307.58C169.297 307.073 169.737 306.66 170.351 306.34C170.964 306.007 171.637 305.84 172.371 305.84C173.584 305.84 174.504 306.207 175.131 306.94C175.771 307.673 176.091 308.7 176.091 310.02V316H174.411V310.24C174.411 309.347 174.191 308.653 173.751 308.16C173.324 307.667 172.724 307.42 171.951 307.42C171.417 307.42 170.931 307.54 170.491 307.78C170.051 308.02 169.697 308.373 169.431 308.84C169.164 309.307 169.031 309.88 169.031 310.56V316H167.351ZM181.763 304.32C181.363 304.32 181.029 304.187 180.763 303.92C180.496 303.653 180.363 303.333 180.363 302.96C180.363 302.573 180.496 302.253 180.763 302C181.029 301.733 181.363 301.6 181.763 301.6C182.149 301.6 182.476 301.733 182.743 302C183.023 302.253 183.163 302.573 183.163 302.96C183.163 303.333 183.023 303.653 182.743 303.92C182.476 304.187 182.149 304.32 181.763 304.32ZM177.883 316V314.56H181.043V308.02C181.043 307.687 180.876 307.52 180.543 307.52H178.223V306.08H180.943C182.129 306.08 182.723 306.673 182.723 307.86V314.56H185.883V316H177.883ZM191.095 316L186.735 306.08H188.655L192.075 314.16L195.515 306.08H197.415L193.035 316H191.095ZM202.367 316.24C201.434 316.24 200.607 316.027 199.887 315.6C199.181 315.16 198.621 314.553 198.207 313.78C197.794 312.993 197.587 312.08 197.587 311.04C197.587 310 197.787 309.093 198.187 308.32C198.601 307.533 199.167 306.927 199.887 306.5C200.607 306.06 201.447 305.84 202.407 305.84C203.367 305.84 204.187 306.06 204.867 306.5C205.547 306.927 206.067 307.493 206.427 308.2C206.787 308.907 206.967 309.667 206.967 310.48C206.967 310.627 206.961 310.773 206.947 310.92C206.947 311.067 206.947 311.233 206.947 311.42H199.247C199.287 312.153 199.454 312.767 199.747 313.26C200.054 313.74 200.434 314.1 200.887 314.34C201.354 314.58 201.847 314.7 202.367 314.7C203.101 314.7 203.674 314.547 204.087 314.24C204.501 313.933 204.814 313.507 205.027 312.96H206.687C206.461 313.88 205.987 314.66 205.267 315.3C204.547 315.927 203.581 316.24 202.367 316.24ZM202.367 307.34C201.594 307.34 200.914 307.573 200.327 308.04C199.754 308.507 199.401 309.16 199.267 310H205.307C205.254 309.173 204.954 308.527 204.407 308.06C203.874 307.58 203.194 307.34 202.367 307.34ZM221.952 316.24C220.752 316.24 219.845 315.88 219.232 315.16C218.618 314.44 218.312 313.4 218.312 312.04V306.08H219.992V311.84C219.992 312.72 220.185 313.413 220.572 313.92C220.972 314.413 221.572 314.66 222.372 314.66C223.172 314.66 223.845 314.393 224.392 313.86C224.938 313.313 225.212 312.533 225.212 311.52V306.08H226.892V316H225.492L225.312 314.5H225.212C224.945 314.98 224.525 315.393 223.952 315.74C223.378 316.073 222.712 316.24 221.952 316.24ZM232.944 316.24C231.677 316.24 230.65 315.947 229.864 315.36C229.09 314.76 228.657 313.94 228.564 312.9H230.304C230.384 313.447 230.65 313.893 231.104 314.24C231.57 314.587 232.197 314.76 232.984 314.76C233.73 314.76 234.284 314.6 234.644 314.28C235.017 313.96 235.204 313.593 235.204 313.18C235.204 312.62 234.984 312.24 234.544 312.04C234.104 311.827 233.444 311.667 232.564 311.56C231.51 311.44 230.637 311.153 229.944 310.7C229.25 310.247 228.904 309.567 228.904 308.66C228.904 307.847 229.244 307.173 229.924 306.64C230.604 306.107 231.53 305.84 232.704 305.84C233.864 305.84 234.777 306.107 235.444 306.64C236.11 307.16 236.49 307.907 236.584 308.88H234.924C234.884 308.4 234.65 308.02 234.224 307.74C233.81 307.447 233.29 307.3 232.664 307.3C232.01 307.3 231.504 307.427 231.144 307.68C230.784 307.92 230.604 308.24 230.604 308.64C230.604 309.04 230.804 309.373 231.204 309.64C231.617 309.893 232.264 310.06 233.144 310.14C233.837 310.22 234.47 310.353 235.044 310.54C235.617 310.727 236.07 311.02 236.404 311.42C236.75 311.82 236.924 312.38 236.924 313.1C236.937 313.7 236.77 314.24 236.424 314.72C236.09 315.187 235.624 315.56 235.024 315.84C234.424 316.107 233.73 316.24 232.944 316.24ZM243.136 316.24C242.203 316.24 241.376 316.027 240.656 315.6C239.949 315.16 239.389 314.553 238.976 313.78C238.563 312.993 238.356 312.08 238.356 311.04C238.356 310 238.556 309.093 238.956 308.32C239.369 307.533 239.936 306.927 240.656 306.5C241.376 306.06 242.216 305.84 243.176 305.84C244.136 305.84 244.956 306.06 245.636 306.5C246.316 306.927 246.836 307.493 247.196 308.2C247.556 308.907 247.736 309.667 247.736 310.48C247.736 310.627 247.729 310.773 247.716 310.92C247.716 311.067 247.716 311.233 247.716 311.42H240.016C240.056 312.153 240.223 312.767 240.516 313.26C240.823 313.74 241.203 314.1 241.656 314.34C242.123 314.58 242.616 314.7 243.136 314.7C243.869 314.7 244.443 314.547 244.856 314.24C245.269 313.933 245.583 313.507 245.796 312.96H247.456C247.229 313.88 246.756 314.66 246.036 315.3C245.316 315.927 244.349 316.24 243.136 316.24ZM243.136 307.34C242.363 307.34 241.683 307.573 241.096 308.04C240.523 308.507 240.169 309.16 240.036 310H246.076C246.023 309.173 245.723 308.527 245.176 308.06C244.643 307.58 243.963 307.34 243.136 307.34ZM259.26 320.4V318.86H260.48C260.987 318.86 261.347 318.76 261.56 318.56C261.774 318.36 261.88 318.007 261.88 317.5V307.52H259.42V306.08H261.88V304.5C261.88 303.473 262.127 302.733 262.62 302.28C263.114 301.827 263.86 301.6 264.86 301.6H267.24V303.12H264.96C264.467 303.12 264.107 303.227 263.88 303.44C263.667 303.64 263.56 303.993 263.56 304.5V306.08H267.24V307.52H263.56V317.5C263.56 318.527 263.314 319.267 262.82 319.72C262.327 320.173 261.587 320.4 260.6 320.4H259.26ZM273.613 316.24C272.679 316.24 271.853 316.027 271.133 315.6C270.413 315.173 269.846 314.573 269.433 313.8C269.019 313.013 268.813 312.093 268.813 311.04C268.813 309.987 269.019 309.073 269.433 308.3C269.846 307.513 270.413 306.907 271.133 306.48C271.853 306.053 272.679 305.84 273.613 305.84C274.546 305.84 275.373 306.053 276.093 306.48C276.813 306.907 277.379 307.513 277.793 308.3C278.206 309.073 278.413 309.987 278.413 311.04C278.413 312.093 278.206 313.013 277.793 313.8C277.379 314.573 276.813 315.173 276.093 315.6C275.373 316.027 274.546 316.24 273.613 316.24ZM273.613 314.64C274.186 314.64 274.706 314.513 275.173 314.26C275.639 314.007 276.006 313.613 276.273 313.08C276.553 312.547 276.693 311.867 276.693 311.04C276.693 310.213 276.553 309.533 276.273 309C276.006 308.467 275.639 308.073 275.173 307.82C274.706 307.567 274.186 307.44 273.613 307.44C273.053 307.44 272.539 307.567 272.073 307.82C271.606 308.073 271.233 308.467 270.953 309C270.673 309.533 270.533 310.213 270.533 311.04C270.533 312.28 270.833 313.193 271.433 313.78C272.033 314.353 272.759 314.64 273.613 314.64ZM279.485 316V314.56H282.025V308.02C282.025 307.687 281.865 307.52 281.545 307.52H279.745V306.08H282.165C282.605 306.08 282.958 306.2 283.225 306.44C283.491 306.68 283.625 307.033 283.625 307.5V307.92H283.705C283.865 307.253 284.165 306.74 284.605 306.38C285.058 306.02 285.685 305.84 286.485 305.84H288.305V307.62H286.245C285.431 307.62 284.805 307.893 284.365 308.44C283.925 308.973 283.705 309.66 283.705 310.5V314.56H286.825V316H279.485ZM304.289 316.24C303.022 316.24 301.996 315.947 301.209 315.36C300.436 314.76 300.002 313.94 299.909 312.9H301.649C301.729 313.447 301.996 313.893 302.449 314.24C302.916 314.587 303.542 314.76 304.329 314.76C305.076 314.76 305.629 314.6 305.989 314.28C306.362 313.96 306.549 313.593 306.549 313.18C306.549 312.62 306.329 312.24 305.889 312.04C305.449 311.827 304.789 311.667 303.909 311.56C302.856 311.44 301.982 311.153 301.289 310.7C300.596 310.247 300.249 309.567 300.249 308.66C300.249 307.847 300.589 307.173 301.269 306.64C301.949 306.107 302.876 305.84 304.049 305.84C305.209 305.84 306.122 306.107 306.789 306.64C307.456 307.16 307.836 307.907 307.929 308.88H306.269C306.229 308.4 305.996 308.02 305.569 307.74C305.156 307.447 304.636 307.3 304.009 307.3C303.356 307.3 302.849 307.427 302.489 307.68C302.129 307.92 301.949 308.24 301.949 308.64C301.949 309.04 302.149 309.373 302.549 309.64C302.962 309.893 303.609 310.06 304.489 310.14C305.182 310.22 305.816 310.353 306.389 310.54C306.962 310.727 307.416 311.02 307.749 311.42C308.096 311.82 308.269 312.38 308.269 313.1C308.282 313.7 308.116 314.24 307.769 314.72C307.436 315.187 306.969 315.56 306.369 315.84C305.769 316.107 305.076 316.24 304.289 316.24ZM315.421 316C314.515 316 313.801 315.78 313.281 315.34C312.761 314.9 312.501 314.107 312.501 312.96V307.52H309.981V306.08H311.481C312.161 306.08 312.555 305.747 312.661 305.08L312.941 303.54H314.181V306.08H318.141V307.52H314.181V312.96C314.181 313.52 314.308 313.913 314.561 314.14C314.828 314.367 315.281 314.48 315.921 314.48H318.141V316H315.421ZM324.573 316.24C323.64 316.24 322.813 316.027 322.093 315.6C321.373 315.173 320.807 314.573 320.393 313.8C319.98 313.013 319.773 312.093 319.773 311.04C319.773 309.987 319.98 309.073 320.393 308.3C320.807 307.513 321.373 306.907 322.093 306.48C322.813 306.053 323.64 305.84 324.573 305.84C325.507 305.84 326.333 306.053 327.053 306.48C327.773 306.907 328.34 307.513 328.753 308.3C329.167 309.073 329.373 309.987 329.373 311.04C329.373 312.093 329.167 313.013 328.753 313.8C328.34 314.573 327.773 315.173 327.053 315.6C326.333 316.027 325.507 316.24 324.573 316.24ZM324.573 314.64C325.147 314.64 325.667 314.513 326.133 314.26C326.6 314.007 326.967 313.613 327.233 313.08C327.513 312.547 327.653 311.867 327.653 311.04C327.653 310.213 327.513 309.533 327.233 309C326.967 308.467 326.6 308.073 326.133 307.82C325.667 307.567 325.147 307.44 324.573 307.44C324.013 307.44 323.5 307.567 323.033 307.82C322.567 308.073 322.193 308.467 321.913 309C321.633 309.533 321.493 310.213 321.493 311.04C321.493 312.28 321.793 313.193 322.393 313.78C322.993 314.353 323.72 314.64 324.573 314.64ZM330.446 316V314.56H332.986V308.02C332.986 307.687 332.826 307.52 332.506 307.52H330.706V306.08H333.126C333.566 306.08 333.919 306.2 334.186 306.44C334.452 306.68 334.586 307.033 334.586 307.5V307.92H334.666C334.826 307.253 335.126 306.74 335.566 306.38C336.019 306.02 336.646 305.84 337.446 305.84H339.266V307.62H337.206C336.392 307.62 335.766 307.893 335.326 308.44C334.886 308.973 334.666 309.66 334.666 310.5V314.56H337.786V316H330.446ZM341.938 320.4L344.378 315.04H343.798L339.878 306.08H341.698L344.958 313.76L348.398 306.08H350.158L343.698 320.4H341.938ZM365.002 316.24C364.162 316.24 363.409 316.04 362.742 315.64C362.089 315.24 361.576 314.653 361.202 313.88C360.829 313.093 360.642 312.14 360.642 311.02C360.642 309.913 360.829 308.973 361.202 308.2C361.576 307.427 362.089 306.84 362.742 306.44C363.409 306.04 364.162 305.84 365.002 305.84C365.789 305.84 366.436 305.993 366.942 306.3C367.462 306.607 367.849 307.007 368.102 307.5V301.6H369.782V316H368.402L368.222 314.46H368.102C367.836 315.007 367.442 315.44 366.922 315.76C366.402 316.08 365.762 316.24 365.002 316.24ZM365.222 314.64C366.062 314.64 366.756 314.347 367.302 313.76C367.849 313.16 368.122 312.253 368.122 311.04C368.122 309.827 367.849 308.927 367.302 308.34C366.756 307.74 366.062 307.44 365.222 307.44C364.382 307.44 363.689 307.74 363.142 308.34C362.609 308.927 362.342 309.827 362.342 311.04C362.342 312.253 362.609 313.16 363.142 313.76C363.689 314.347 364.382 314.64 365.222 314.64ZM375.414 304.32C375.014 304.32 374.681 304.187 374.414 303.92C374.148 303.653 374.014 303.333 374.014 302.96C374.014 302.573 374.148 302.253 374.414 302C374.681 301.733 375.014 301.6 375.414 301.6C375.801 301.6 376.128 301.733 376.394 302C376.674 302.253 376.814 302.573 376.814 302.96C376.814 303.333 376.674 303.653 376.394 303.92C376.128 304.187 375.801 304.32 375.414 304.32ZM371.534 316V314.56H374.694V308.02C374.694 307.687 374.528 307.52 374.194 307.52H371.874V306.08H374.594C375.781 306.08 376.374 306.673 376.374 307.86V314.56H379.534V316H371.534ZM385.827 316.24C384.56 316.24 383.533 315.947 382.747 315.36C381.973 314.76 381.54 313.94 381.447 312.9H383.187C383.267 313.447 383.533 313.893 383.987 314.24C384.453 314.587 385.08 314.76 385.867 314.76C386.613 314.76 387.167 314.6 387.527 314.28C387.9 313.96 388.087 313.593 388.087 313.18C388.087 312.62 387.867 312.24 387.427 312.04C386.987 311.827 386.327 311.667 385.447 311.56C384.393 311.44 383.52 311.153 382.827 310.7C382.133 310.247 381.787 309.567 381.787 308.66C381.787 307.847 382.127 307.173 382.807 306.64C383.487 306.107 384.413 305.84 385.587 305.84C386.747 305.84 387.66 306.107 388.327 306.64C388.993 307.16 389.373 307.907 389.467 308.88H387.807C387.767 308.4 387.533 308.02 387.107 307.74C386.693 307.447 386.173 307.3 385.547 307.3C384.893 307.3 384.387 307.427 384.027 307.68C383.667 307.92 383.487 308.24 383.487 308.64C383.487 309.04 383.687 309.373 384.087 309.64C384.5 309.893 385.147 310.06 386.027 310.14C386.72 310.22 387.353 310.353 387.927 310.54C388.5 310.727 388.953 311.02 389.287 311.42C389.633 311.82 389.807 312.38 389.807 313.1C389.82 313.7 389.653 314.24 389.307 314.72C388.973 315.187 388.507 315.56 387.907 315.84C387.307 316.107 386.613 316.24 385.827 316.24ZM396.079 316.24C395.185 316.24 394.385 316.033 393.679 315.62C392.985 315.207 392.432 314.613 392.019 313.84C391.605 313.053 391.399 312.12 391.399 311.04C391.399 309.96 391.605 309.033 392.019 308.26C392.432 307.473 392.992 306.873 393.699 306.46C394.419 306.047 395.212 305.84 396.079 305.84C397.305 305.84 398.285 306.147 399.019 306.76C399.752 307.373 400.219 308.193 400.419 309.22H398.699C398.539 308.673 398.232 308.24 397.779 307.92C397.325 307.587 396.752 307.42 396.059 307.42C395.552 307.42 395.072 307.553 394.619 307.82C394.165 308.087 393.799 308.487 393.519 309.02C393.239 309.553 393.099 310.227 393.099 311.04C393.099 311.853 393.239 312.533 393.519 313.08C393.799 313.613 394.165 314.013 394.619 314.28C395.072 314.547 395.552 314.68 396.059 314.68C396.792 314.68 397.372 314.513 397.799 314.18C398.239 313.847 398.539 313.407 398.699 312.86H400.419C400.165 313.913 399.665 314.74 398.919 315.34C398.185 315.94 397.239 316.24 396.079 316.24ZM406.111 316.24C405.178 316.24 404.351 316.027 403.631 315.6C402.911 315.173 402.344 314.573 401.931 313.8C401.518 313.013 401.311 312.093 401.311 311.04C401.311 309.987 401.518 309.073 401.931 308.3C402.344 307.513 402.911 306.907 403.631 306.48C404.351 306.053 405.178 305.84 406.111 305.84C407.044 305.84 407.871 306.053 408.591 306.48C409.311 306.907 409.878 307.513 410.291 308.3C410.704 309.073 410.911 309.987 410.911 311.04C410.911 312.093 410.704 313.013 410.291 313.8C409.878 314.573 409.311 315.173 408.591 315.6C407.871 316.027 407.044 316.24 406.111 316.24ZM406.111 314.64C406.684 314.64 407.204 314.513 407.671 314.26C408.138 314.007 408.504 313.613 408.771 313.08C409.051 312.547 409.191 311.867 409.191 311.04C409.191 310.213 409.051 309.533 408.771 309C408.504 308.467 408.138 308.073 407.671 307.82C407.204 307.567 406.684 307.44 406.111 307.44C405.551 307.44 405.038 307.567 404.571 307.82C404.104 308.073 403.731 308.467 403.451 309C403.171 309.533 403.031 310.213 403.031 311.04C403.031 312.28 403.331 313.193 403.931 313.78C404.531 314.353 405.258 314.64 406.111 314.64ZM415.323 316L410.963 306.08H412.883L416.303 314.16L419.743 306.08H421.643L417.263 316H415.323ZM426.595 316.24C425.662 316.24 424.835 316.027 424.115 315.6C423.409 315.16 422.849 314.553 422.435 313.78C422.022 312.993 421.815 312.08 421.815 311.04C421.815 310 422.015 309.093 422.415 308.32C422.829 307.533 423.395 306.927 424.115 306.5C424.835 306.06 425.675 305.84 426.635 305.84C427.595 305.84 428.415 306.06 429.095 306.5C429.775 306.927 430.295 307.493 430.655 308.2C431.015 308.907 431.195 309.667 431.195 310.48C431.195 310.627 431.189 310.773 431.175 310.92C431.175 311.067 431.175 311.233 431.175 311.42H423.475C423.515 312.153 423.682 312.767 423.975 313.26C424.282 313.74 424.662 314.1 425.115 314.34C425.582 314.58 426.075 314.7 426.595 314.7C427.329 314.7 427.902 314.547 428.315 314.24C428.729 313.933 429.042 313.507 429.255 312.96H430.915C430.689 313.88 430.215 314.66 429.495 315.3C428.775 315.927 427.809 316.24 426.595 316.24ZM426.595 307.34C425.822 307.34 425.142 307.573 424.555 308.04C423.982 308.507 423.629 309.16 423.495 310H429.535C429.482 309.173 429.182 308.527 428.635 308.06C428.102 307.58 427.422 307.34 426.595 307.34ZM432.368 316V314.56H434.908V308.02C434.908 307.687 434.748 307.52 434.428 307.52H432.628V306.08H435.048C435.488 306.08 435.841 306.2 436.108 306.44C436.374 306.68 436.508 307.033 436.508 307.5V307.92H436.588C436.748 307.253 437.048 306.74 437.488 306.38C437.941 306.02 438.568 305.84 439.368 305.84H441.188V307.62H439.128C438.314 307.62 437.688 307.893 437.248 308.44C436.808 308.973 436.588 309.66 436.588 310.5V314.56H439.708V316H432.368ZM443.86 320.4L446.3 315.04H445.72L441.8 306.08H443.62L446.88 313.76L450.32 306.08H452.08L445.62 320.4H443.86ZM466.264 316.24C465.411 316.24 464.657 316.067 464.004 315.72C463.364 315.36 462.864 314.86 462.504 314.22C462.144 313.58 461.964 312.827 461.964 311.96C461.964 311.12 462.177 310.36 462.604 309.68C463.044 308.987 463.671 308.407 464.484 307.94C464.124 307.42 463.857 306.927 463.684 306.46C463.524 305.993 463.444 305.52 463.444 305.04C463.444 304.093 463.764 303.313 464.404 302.7C465.057 302.073 465.937 301.76 467.044 301.76C468.111 301.76 468.957 302.06 469.584 302.66C470.224 303.26 470.544 304.02 470.544 304.94H468.884C468.884 304.407 468.697 303.993 468.324 303.7C467.951 303.393 467.517 303.24 467.024 303.24C466.424 303.24 465.951 303.407 465.604 303.74C465.271 304.073 465.104 304.5 465.104 305.02C465.104 305.433 465.211 305.853 465.424 306.28C465.637 306.707 465.964 307.193 466.404 307.74L469.584 311.7L470.924 308.76H472.704L470.684 313.06L473.044 316H471.064L469.824 314.5C469.424 315.033 468.931 315.46 468.344 315.78C467.771 316.087 467.077 316.24 466.264 316.24ZM463.644 311.92C463.644 312.72 463.884 313.387 464.364 313.92C464.857 314.453 465.491 314.72 466.264 314.72C466.824 314.72 467.304 314.593 467.704 314.34C468.104 314.087 468.464 313.713 468.784 313.22L465.404 309.12C464.231 309.773 463.644 310.707 463.644 311.92ZM487.988 316.24C487.228 316.24 486.582 316.087 486.048 315.78C485.528 315.46 485.142 315.027 484.888 314.48H484.768L484.588 316H483.208V301.6H484.888V307.5C485.142 307.06 485.535 306.673 486.068 306.34C486.615 306.007 487.255 305.84 487.988 305.84C488.842 305.84 489.595 306.04 490.248 306.44C490.902 306.84 491.415 307.427 491.788 308.2C492.162 308.973 492.348 309.913 492.348 311.02C492.348 312.14 492.162 313.093 491.788 313.88C491.415 314.653 490.895 315.24 490.228 315.64C489.575 316.04 488.828 316.24 487.988 316.24ZM487.768 314.64C488.608 314.64 489.295 314.347 489.828 313.76C490.375 313.16 490.648 312.253 490.648 311.04C490.648 309.827 490.375 308.927 489.828 308.34C489.295 307.74 488.608 307.44 487.768 307.44C486.928 307.44 486.235 307.74 485.688 308.34C485.142 308.927 484.868 309.827 484.868 311.04C484.868 312.253 485.142 313.16 485.688 313.76C486.235 314.347 486.928 314.64 487.768 314.64ZM497.001 316.24C496.214 316.24 495.561 316.1 495.041 315.82C494.521 315.54 494.134 315.173 493.881 314.72C493.627 314.253 493.501 313.747 493.501 313.2C493.501 312.187 493.867 311.42 494.601 310.9C495.347 310.367 496.341 310.1 497.581 310.1H500.301V309.9C500.301 308.167 499.507 307.3 497.921 307.3C497.281 307.3 496.741 307.44 496.301 307.72C495.874 308 495.601 308.44 495.481 309.04H493.761C493.827 308.373 494.047 307.8 494.421 307.32C494.807 306.84 495.301 306.473 495.901 306.22C496.501 305.967 497.174 305.84 497.921 305.84C499.334 305.84 500.361 306.213 501.001 306.96C501.654 307.693 501.981 308.673 501.981 309.9V316H500.541L500.401 314.46H500.261C499.967 314.94 499.574 315.36 499.081 315.72C498.601 316.067 497.907 316.24 497.001 316.24ZM497.301 314.76C497.941 314.76 498.481 314.607 498.921 314.3C499.374 313.993 499.714 313.587 499.941 313.08C500.181 312.573 500.301 312.02 500.301 311.42H497.721C496.814 311.42 496.174 311.573 495.801 311.88C495.441 312.187 495.261 312.593 495.261 313.1C495.261 313.62 495.434 314.027 495.781 314.32C496.127 314.613 496.634 314.76 497.301 314.76ZM508.193 316.24C507.299 316.24 506.499 316.033 505.793 315.62C505.099 315.207 504.546 314.613 504.133 313.84C503.719 313.053 503.513 312.12 503.513 311.04C503.513 309.96 503.719 309.033 504.133 308.26C504.546 307.473 505.106 306.873 505.813 306.46C506.533 306.047 507.326 305.84 508.193 305.84C509.419 305.84 510.399 306.147 511.133 306.76C511.866 307.373 512.333 308.193 512.533 309.22H510.813C510.653 308.673 510.346 308.24 509.893 307.92C509.439 307.587 508.866 307.42 508.173 307.42C507.666 307.42 507.186 307.553 506.733 307.82C506.279 308.087 505.913 308.487 505.633 309.02C505.353 309.553 505.213 310.227 505.213 311.04C505.213 311.853 505.353 312.533 505.633 313.08C505.913 313.613 506.279 314.013 506.733 314.28C507.186 314.547 507.666 314.68 508.173 314.68C508.906 314.68 509.486 314.513 509.913 314.18C510.353 313.847 510.653 313.407 510.813 312.86H512.533C512.279 313.913 511.779 314.74 511.033 315.34C510.299 315.94 509.353 316.24 508.193 316.24ZM514.445 316V301.6H516.125V310.28L520.265 306.08H522.405L517.985 310.5V310.62L522.945 316H520.865L516.125 310.84V316H514.445ZM528.237 313.08C527.544 313.08 526.924 312.953 526.377 312.7L525.697 313.52C525.551 313.72 525.511 313.92 525.577 314.12C525.657 314.307 525.851 314.4 526.157 314.4H528.777C529.964 314.4 530.924 314.633 531.657 315.1C532.391 315.553 532.757 316.28 532.757 317.28C532.757 317.88 532.604 318.433 532.297 318.94C531.991 319.447 531.504 319.853 530.837 320.16C530.184 320.48 529.324 320.64 528.257 320.64C526.871 320.64 525.757 320.38 524.917 319.86C524.077 319.34 523.657 318.547 523.657 317.48C523.657 317.093 523.751 316.733 523.937 316.4C524.137 316.08 524.384 315.793 524.677 315.54C524.291 315.3 524.051 314.94 523.957 314.46C523.877 313.98 524.024 313.507 524.397 313.04L525.297 311.92C524.657 311.253 524.337 310.433 524.337 309.46C524.337 308.82 524.491 308.227 524.797 307.68C525.104 307.12 525.544 306.673 526.117 306.34C526.704 306.007 527.411 305.84 528.237 305.84C528.771 305.84 529.264 305.92 529.717 306.08H533.437V307.34L531.577 307.4V307.54C531.924 308.113 532.097 308.753 532.097 309.46C532.097 310.1 531.944 310.7 531.637 311.26C531.344 311.807 530.904 312.247 530.317 312.58C529.744 312.913 529.051 313.08 528.237 313.08ZM528.237 311.64C528.891 311.64 529.424 311.447 529.837 311.06C530.264 310.673 530.477 310.14 530.477 309.46C530.477 308.78 530.264 308.253 529.837 307.88C529.424 307.493 528.891 307.3 528.237 307.3C527.571 307.3 527.024 307.493 526.597 307.88C526.171 308.253 525.957 308.78 525.957 309.46C525.957 310.14 526.171 310.673 526.597 311.06C527.024 311.447 527.571 311.64 528.237 311.64ZM525.317 317.42C525.317 318.007 525.591 318.447 526.137 318.74C526.684 319.033 527.391 319.18 528.257 319.18C529.097 319.18 529.777 319.013 530.297 318.68C530.831 318.347 531.097 317.9 531.097 317.34C531.097 316.9 530.911 316.527 530.537 316.22C530.164 315.927 529.477 315.78 528.477 315.78H526.217C525.617 316.22 525.317 316.767 525.317 317.42ZM534.289 316V314.56H536.829V308.02C536.829 307.687 536.669 307.52 536.349 307.52H534.549V306.08H536.969C537.409 306.08 537.763 306.2 538.029 306.44C538.296 306.68 538.429 307.033 538.429 307.5V307.92H538.509C538.669 307.253 538.969 306.74 539.409 306.38C539.863 306.02 540.489 305.84 541.289 305.84H543.109V307.62H541.049C540.236 307.62 539.609 307.893 539.169 308.44C538.729 308.973 538.509 309.66 538.509 310.5V314.56H541.629V316H534.289ZM548.802 316.24C547.868 316.24 547.042 316.027 546.322 315.6C545.602 315.173 545.035 314.573 544.622 313.8C544.208 313.013 544.002 312.093 544.002 311.04C544.002 309.987 544.208 309.073 544.622 308.3C545.035 307.513 545.602 306.907 546.322 306.48C547.042 306.053 547.868 305.84 548.802 305.84C549.735 305.84 550.562 306.053 551.282 306.48C552.002 306.907 552.568 307.513 552.982 308.3C553.395 309.073 553.602 309.987 553.602 311.04C553.602 312.093 553.395 313.013 552.982 313.8C552.568 314.573 552.002 315.173 551.282 315.6C550.562 316.027 549.735 316.24 548.802 316.24ZM548.802 314.64C549.375 314.64 549.895 314.513 550.362 314.26C550.828 314.007 551.195 313.613 551.462 313.08C551.742 312.547 551.882 311.867 551.882 311.04C551.882 310.213 551.742 309.533 551.462 309C551.195 308.467 550.828 308.073 550.362 307.82C549.895 307.567 549.375 307.44 548.802 307.44C548.242 307.44 547.728 307.567 547.262 307.82C546.795 308.073 546.422 308.467 546.142 309C545.862 309.533 545.722 310.213 545.722 311.04C545.722 312.28 546.022 313.193 546.622 313.78C547.222 314.353 547.948 314.64 548.802 314.64ZM558.294 316.24C557.094 316.24 556.187 315.88 555.574 315.16C554.96 314.44 554.654 313.4 554.654 312.04V306.08H556.334V311.84C556.334 312.72 556.527 313.413 556.914 313.92C557.314 314.413 557.914 314.66 558.714 314.66C559.514 314.66 560.187 314.393 560.734 313.86C561.28 313.313 561.554 312.533 561.554 311.52V306.08H563.234V316H561.834L561.654 314.5H561.554C561.287 314.98 560.867 315.393 560.294 315.74C559.72 316.073 559.054 316.24 558.294 316.24ZM564.946 316V306.08H566.346L566.526 307.58H566.626C566.893 307.1 567.313 306.693 567.886 306.36C568.459 306.013 569.119 305.84 569.866 305.84C571.079 305.84 571.986 306.2 572.586 306.92C573.199 307.64 573.506 308.68 573.506 310.04V316H571.826V310.24C571.826 309.36 571.633 308.673 571.246 308.18C570.859 307.673 570.259 307.42 569.446 307.42C568.659 307.42 567.993 307.693 567.446 308.24C566.899 308.773 566.626 309.547 566.626 310.56V316H564.946ZM579.038 316.24C578.198 316.24 577.445 316.04 576.778 315.64C576.125 315.24 575.611 314.653 575.238 313.88C574.865 313.093 574.678 312.14 574.678 311.02C574.678 309.913 574.865 308.973 575.238 308.2C575.611 307.427 576.125 306.84 576.778 306.44C577.445 306.04 578.198 305.84 579.038 305.84C579.825 305.84 580.471 305.993 580.978 306.3C581.498 306.607 581.885 307.007 582.138 307.5V301.6H583.818V316H582.438L582.258 314.46H582.138C581.871 315.007 581.478 315.44 580.958 315.76C580.438 316.08 579.798 316.24 579.038 316.24ZM579.258 314.64C580.098 314.64 580.791 314.347 581.338 313.76C581.885 313.16 582.158 312.253 582.158 311.04C582.158 309.827 581.885 308.927 581.338 308.34C580.791 307.74 580.098 307.44 579.258 307.44C578.418 307.44 577.725 307.74 577.178 308.34C576.645 308.927 576.378 309.827 576.378 311.04C576.378 312.253 576.645 313.16 577.178 313.76C577.725 314.347 578.418 314.64 579.258 314.64Z" fill="#D9D9D9"/>
<circle cx="221.924" cy="129.924" r="16.9241" stroke="#D9D9D9" stroke-width="2"/>
<circle cx="399.372" cy="130.82" r="16.9241" stroke="#D9D9D9" stroke-width="2"/>
<circle cx="540.076" cy="236.572" r="16.9241" stroke="#D9D9D9" stroke-width="2"/>
<circle cx="437.909" cy="270.628" r="16.9241" stroke="#D9D9D9" stroke-width="2"/>
<path d="M222.82 146.504C231.334 167.415 279.64 200.186 343.808 185.489C407.976 170.791 426.706 226.565 435.668 253.6C435.967 224.473 443.734 164.249 472.413 156.362C501.091 148.475 529.172 195.496 539.628 219.992" stroke="#D9D9D9" stroke-width="2"/>
<path d="M522.152 238.365C468.38 237.289 398.924 199.828 398.924 150.985C387.273 169.357 373.382 239.709 433.876 252.704" stroke="#D9D9D9" stroke-width="2"/>
</g>
<defs>
<filter id="filter0_d_15_129" x="0" y="0" width="604" height="345" filterUnits="userSpaceOnUse" color-interpolation-filters="sRGB">
<feFlood flood-opacity="0" result="BackgroundImageFix"/>
<feColorMatrix in="SourceAlpha" type="matrix" values="0 0 0 0 0 0 0 0 0 0 0 0 0 0 0 0 0 0 127 0" result="hardAlpha"/>
<feOffset dy="4"/>
<feGaussianBlur stdDeviation="2"/>
<feComposite in2="hardAlpha" operator="out"/>
<feColorMatrix type="matrix" values="0 0 0 0 0 0 0 0 0 0 0 0 0 0 0 0 0 0 0.25 0"/>
<feBlend mode="normal" in2="BackgroundImageFix" result="effect1_dropShadow_15_129"/>
<feBlend mode="normal" in="SourceGraphic" in2="effect1_dropShadow_15_129" result="shape"/>
</filter>
<filter id="filter1_d_15_129" x="0" y="0" width="604" height="345" filterUnits="userSpaceOnUse" color-interpolation-filters="sRGB">
<feFlood flood-opacity="0" result="BackgroundImageFix"/>
<feColorMatrix in="SourceAlpha" type="matrix" values="0 0 0 0 0 0 0 0 0 0 0 0 0 0 0 0 0 0 127 0" result="hardAlpha"/>
<feOffset dy="4"/>
<feGaussianBlur stdDeviation="2"/>
<feComposite in2="hardAlpha" operator="out"/>
<feColorMatrix type="matrix" values="0 0 0 0 0 0 0 0 0 0 0 0 0 0 0 0 0 0 0.25 0"/>
<feBlend mode="normal" in2="BackgroundImageFix" result="effect1_dropShadow_15_129"/>
<feBlend mode="normal" in="SourceGraphic" in2="effect1_dropShadow_15_129" result="shape"/>
</filter>
</defs>
</svg>
