<svg width="573" height="425" viewBox="0 0 573 425" fill="none" xmlns="http://www.w3.org/2000/svg">
<circle cx="80" cy="92" r="80" fill="#FF7300"/>
<circle cx="493" cy="290" r="80" fill="#FF7300"/>
<path d="M491.871 210.513C492.301 210.86 492.93 210.794 493.277 210.364L498.938 203.367C499.285 202.937 499.218 202.308 498.789 201.96C498.36 201.613 497.73 201.68 497.383 202.109L492.351 208.329L486.131 203.298C485.702 202.95 485.072 203.017 484.725 203.446C484.378 203.876 484.444 204.505 484.874 204.853L491.871 210.513ZM493.494 209.63C486.23 140.878 466.649 95.2643 415.445 69.7885C364.417 44.3998 282.153 39.1223 149.916 50.2387L150.084 52.2317C282.347 41.1129 364.083 46.4678 414.555 71.5791C464.851 96.6033 484.27 141.357 491.506 209.84L493.494 209.63Z" fill="#D9D9D9"/>
<path d="M423.264 331.145C423.62 330.724 423.567 330.093 423.145 329.736L416.271 323.928C415.849 323.571 415.218 323.624 414.861 324.046C414.505 324.468 414.558 325.099 414.98 325.455L421.091 330.618L415.928 336.729C415.571 337.151 415.624 337.782 416.046 338.139C416.468 338.495 417.099 338.442 417.455 338.02L423.264 331.145ZM79.0055 172.105C86.2697 240.857 105.851 286.471 157.055 311.947C208.083 337.335 290.347 342.613 422.584 331.496L422.416 329.504C290.153 340.622 208.417 335.267 157.945 310.156C107.649 285.132 88.2303 240.378 80.9945 171.895L79.0055 172.105Z" fill="#D9D9D9"/>
<path d="M18.9309 91V74.2H24.5229C26.2669 74.2 27.5789 74.6 28.4589 75.4C29.3389 76.2 29.7789 77.224 29.7789 78.472C29.7789 79.448 29.5149 80.256 28.9869 80.896C28.4589 81.52 27.8669 81.96 27.2109 82.216V82.384C27.9949 82.64 28.6829 83.104 29.2749 83.776C29.8669 84.448 30.1629 85.312 30.1629 86.368C30.1629 87.232 29.9469 88.016 29.5149 88.72C29.0989 89.408 28.4829 89.96 27.6669 90.376C26.8669 90.792 25.8829 91 24.7149 91H18.9309ZM20.9469 81.448H24.3789C25.4509 81.448 26.2669 81.216 26.8269 80.752C27.4029 80.272 27.6909 79.584 27.6909 78.688C27.6909 77.84 27.4109 77.184 26.8509 76.72C26.2909 76.256 25.4429 76.024 24.3069 76.024H20.9469V81.448ZM20.9469 89.152H24.4989C25.6509 89.152 26.5389 88.896 27.1629 88.384C27.7869 87.856 28.0989 87.12 28.0989 86.176C28.0989 85.232 27.7709 84.504 27.1149 83.992C26.4589 83.464 25.5709 83.2 24.4509 83.2H20.9469V89.152ZM35.7695 91.288C34.8255 91.288 34.0415 91.12 33.4175 90.784C32.7935 90.448 32.3295 90.008 32.0255 89.464C31.7215 88.904 31.5695 88.296 31.5695 87.64C31.5695 86.424 32.0095 85.504 32.8895 84.88C33.7855 84.24 34.9775 83.92 36.4655 83.92H39.7295V83.68C39.7295 81.6 38.7775 80.56 36.8735 80.56C36.1055 80.56 35.4575 80.728 34.9295 81.064C34.4175 81.4 34.0895 81.928 33.9455 82.648H31.8815C31.9615 81.848 32.2255 81.16 32.6735 80.584C33.1375 80.008 33.7295 79.568 34.4495 79.264C35.1695 78.96 35.9775 78.808 36.8735 78.808C38.5695 78.808 39.8015 79.256 40.5695 80.152C41.3535 81.032 41.7455 82.208 41.7455 83.68V91H40.0175L39.8495 89.152H39.6815C39.3295 89.728 38.8575 90.232 38.2655 90.664C37.6895 91.08 36.8575 91.288 35.7695 91.288ZM36.1295 89.512C36.8975 89.512 37.5455 89.328 38.0735 88.96C38.6175 88.592 39.0255 88.104 39.2975 87.496C39.5855 86.888 39.7295 86.224 39.7295 85.504H36.6335C35.5455 85.504 34.7775 85.688 34.3295 86.056C33.8975 86.424 33.6815 86.912 33.6815 87.52C33.6815 88.144 33.8895 88.632 34.3055 88.984C34.7215 89.336 35.3295 89.512 36.1295 89.512ZM49.2001 91.288C48.1281 91.288 47.1681 91.04 46.3201 90.544C45.4881 90.048 44.8241 89.336 44.3281 88.408C43.8321 87.464 43.5841 86.344 43.5841 85.048C43.5841 83.752 43.8321 82.64 44.3281 81.712C44.8241 80.768 45.4961 80.048 46.3441 79.552C47.2081 79.056 48.1601 78.808 49.2001 78.808C50.6721 78.808 51.8481 79.176 52.7281 79.912C53.6081 80.648 54.1681 81.632 54.4081 82.864H52.3441C52.1521 82.208 51.7841 81.688 51.2401 81.304C50.6961 80.904 50.0081 80.704 49.1761 80.704C48.5681 80.704 47.9921 80.864 47.4481 81.184C46.9041 81.504 46.4641 81.984 46.1281 82.624C45.7921 83.264 45.6241 84.072 45.6241 85.048C45.6241 86.024 45.7921 86.84 46.1281 87.496C46.4641 88.136 46.9041 88.616 47.4481 88.936C47.9921 89.256 48.5681 89.416 49.1761 89.416C50.0561 89.416 50.7521 89.216 51.2641 88.816C51.7921 88.416 52.1521 87.888 52.3441 87.232H54.4081C54.1041 88.496 53.5041 89.488 52.6081 90.208C51.7281 90.928 50.5921 91.288 49.2001 91.288ZM56.7027 91V73.72H58.7187V84.136L63.6867 79.096H66.2547L60.9508 84.4V84.544L66.9028 91H64.4067L58.7187 84.808V91H56.7027ZM73.2534 87.496C72.4214 87.496 71.6774 87.344 71.0214 87.04L70.2054 88.024C70.0294 88.264 69.9814 88.504 70.0614 88.744C70.1574 88.968 70.3894 89.08 70.7574 89.08H73.9014C75.3254 89.08 76.4774 89.36 77.3574 89.92C78.2374 90.464 78.6774 91.336 78.6774 92.536C78.6774 93.256 78.4934 93.92 78.1254 94.528C77.7574 95.136 77.1734 95.624 76.3734 95.992C75.5894 96.376 74.5574 96.568 73.2774 96.568C71.6134 96.568 70.2774 96.256 69.2694 95.632C68.2614 95.008 67.7574 94.056 67.7574 92.776C67.7574 92.312 67.8694 91.88 68.0934 91.48C68.3334 91.096 68.6294 90.752 68.9814 90.448C68.5174 90.16 68.2294 89.728 68.1174 89.152C68.0214 88.576 68.1974 88.008 68.6454 87.448L69.7254 86.104C68.9574 85.304 68.5734 84.32 68.5734 83.152C68.5734 82.384 68.7574 81.672 69.1254 81.016C69.4934 80.344 70.0214 79.808 70.7094 79.408C71.4134 79.008 72.2614 78.808 73.2534 78.808C73.8934 78.808 74.4854 78.904 75.0294 79.096H79.4934V80.608L77.2614 80.68V80.848C77.6774 81.536 77.8854 82.304 77.8854 83.152C77.8854 83.92 77.7014 84.64 77.3334 85.312C76.9814 85.968 76.4534 86.496 75.7494 86.896C75.0614 87.296 74.2294 87.496 73.2534 87.496ZM73.2534 85.768C74.0374 85.768 74.6774 85.536 75.1734 85.072C75.6854 84.608 75.9414 83.968 75.9414 83.152C75.9414 82.336 75.6854 81.704 75.1734 81.256C74.6774 80.792 74.0374 80.56 73.2534 80.56C72.4534 80.56 71.7974 80.792 71.2854 81.256C70.7734 81.704 70.5174 82.336 70.5174 83.152C70.5174 83.968 70.7734 84.608 71.2854 85.072C71.7974 85.536 72.4534 85.768 73.2534 85.768ZM69.7494 92.704C69.7494 93.408 70.0774 93.936 70.7334 94.288C71.3894 94.64 72.2374 94.816 73.2774 94.816C74.2854 94.816 75.1014 94.616 75.7254 94.216C76.3654 93.816 76.6854 93.28 76.6854 92.608C76.6854 92.08 76.4614 91.632 76.0134 91.264C75.5654 90.912 74.7414 90.736 73.5414 90.736H70.8294C70.1094 91.264 69.7494 91.92 69.7494 92.704ZM80.516 91V89.272H83.564V81.424C83.564 81.024 83.372 80.824 82.988 80.824H80.828V79.096H83.732C84.26 79.096 84.684 79.24 85.004 79.528C85.324 79.816 85.484 80.24 85.484 80.8V81.304H85.58C85.772 80.504 86.132 79.888 86.66 79.456C87.204 79.024 87.956 78.808 88.916 78.808H91.1V80.944H88.628C87.652 80.944 86.9 81.272 86.372 81.928C85.844 82.568 85.58 83.392 85.58 84.4V89.272H89.324V91H80.516ZM97.9306 91.288C96.8106 91.288 95.8186 91.032 94.9546 90.52C94.0906 90.008 93.4106 89.288 92.9146 88.36C92.4186 87.416 92.1706 86.312 92.1706 85.048C92.1706 83.784 92.4186 82.688 92.9146 81.76C93.4106 80.816 94.0906 80.088 94.9546 79.576C95.8186 79.064 96.8106 78.808 97.9306 78.808C99.0506 78.808 100.043 79.064 100.907 79.576C101.771 80.088 102.451 80.816 102.947 81.76C103.443 82.688 103.691 83.784 103.691 85.048C103.691 86.312 103.443 87.416 102.947 88.36C102.451 89.288 101.771 90.008 100.907 90.52C100.043 91.032 99.0506 91.288 97.9306 91.288ZM97.9306 89.368C98.6186 89.368 99.2426 89.216 99.8026 88.912C100.363 88.608 100.803 88.136 101.123 87.496C101.459 86.856 101.627 86.04 101.627 85.048C101.627 84.056 101.459 83.24 101.123 82.6C100.803 81.96 100.363 81.488 99.8026 81.184C99.2426 80.88 98.6186 80.728 97.9306 80.728C97.2586 80.728 96.6426 80.88 96.0826 81.184C95.5226 81.488 95.0746 81.96 94.7386 82.6C94.4026 83.24 94.2346 84.056 94.2346 85.048C94.2346 86.536 94.5946 87.632 95.3146 88.336C96.0346 89.024 96.9066 89.368 97.9306 89.368ZM109.321 91.288C107.881 91.288 106.793 90.856 106.057 89.992C105.321 89.128 104.953 87.88 104.953 86.248V79.096H106.969V86.008C106.969 87.064 107.201 87.896 107.665 88.504C108.145 89.096 108.865 89.392 109.825 89.392C110.785 89.392 111.593 89.072 112.249 88.432C112.905 87.776 113.233 86.84 113.233 85.624V79.096H115.249V91H113.569L113.353 89.2H113.233C112.913 89.776 112.409 90.272 111.721 90.688C111.033 91.088 110.233 91.288 109.321 91.288ZM117.304 91V79.096H118.984L119.2 80.896H119.32C119.64 80.32 120.144 79.832 120.832 79.432C121.52 79.016 122.312 78.808 123.208 78.808C124.664 78.808 125.752 79.24 126.472 80.104C127.208 80.968 127.576 82.216 127.576 83.848V91H125.56V84.088C125.56 83.032 125.328 82.208 124.864 81.616C124.4 81.008 123.68 80.704 122.704 80.704C121.76 80.704 120.96 81.032 120.304 81.688C119.648 82.328 119.32 83.256 119.32 84.472V91H117.304ZM134.215 91.288C133.207 91.288 132.303 91.048 131.503 90.568C130.719 90.088 130.103 89.384 129.655 88.456C129.207 87.512 128.983 86.368 128.983 85.024C128.983 83.696 129.207 82.568 129.655 81.64C130.103 80.712 130.719 80.008 131.503 79.528C132.303 79.048 133.207 78.808 134.215 78.808C135.159 78.808 135.935 78.992 136.543 79.36C137.167 79.728 137.631 80.208 137.935 80.8V73.72H139.951V91H138.295L138.079 89.152H137.935C137.615 89.808 137.143 90.328 136.519 90.712C135.895 91.096 135.127 91.288 134.215 91.288ZM134.479 89.368C135.487 89.368 136.319 89.016 136.975 88.312C137.631 87.592 137.959 86.504 137.959 85.048C137.959 83.592 137.631 82.512 136.975 81.808C136.319 81.088 135.487 80.728 134.479 80.728C133.471 80.728 132.639 81.088 131.983 81.808C131.343 82.512 131.023 83.592 131.023 85.048C131.023 86.504 131.343 87.592 131.983 88.312C132.639 89.016 133.471 89.368 134.479 89.368ZM48.4274 122V105.2H54.0194C55.7634 105.2 57.0754 105.6 57.9554 106.4C58.8354 107.2 59.2754 108.224 59.2754 109.472C59.2754 110.448 59.0114 111.256 58.4834 111.896C57.9554 112.52 57.3634 112.96 56.7074 113.216V113.384C57.4914 113.64 58.1794 114.104 58.7714 114.776C59.3634 115.448 59.6594 116.312 59.6594 117.368C59.6594 118.232 59.4434 119.016 59.0114 119.72C58.5954 120.408 57.9794 120.96 57.1634 121.376C56.3634 121.792 55.3794 122 54.2114 122H48.4274ZM50.4434 112.448H53.8754C54.9474 112.448 55.7634 112.216 56.3234 111.752C56.8994 111.272 57.1874 110.584 57.1874 109.688C57.1874 108.84 56.9074 108.184 56.3474 107.72C55.7874 107.256 54.9394 107.024 53.8034 107.024H50.4434V112.448ZM50.4434 120.152H53.9954C55.1474 120.152 56.0354 119.896 56.6594 119.384C57.2834 118.856 57.5954 118.12 57.5954 117.176C57.5954 116.232 57.2674 115.504 56.6114 114.992C55.9554 114.464 55.0674 114.2 53.9474 114.2H50.4434V120.152ZM65.4341 122.288C63.9941 122.288 62.9061 121.856 62.1701 120.992C61.4341 120.128 61.0661 118.88 61.0661 117.248V110.096H63.0821V117.008C63.0821 118.064 63.3141 118.896 63.7781 119.504C64.2581 120.096 64.9781 120.392 65.9381 120.392C66.8981 120.392 67.7061 120.072 68.3621 119.432C69.0181 118.776 69.3461 117.84 69.3461 116.624V110.096H71.3621V122H69.6821L69.4661 120.2H69.3461C69.0261 120.776 68.5221 121.272 67.8341 121.688C67.1461 122.088 66.3461 122.288 65.4341 122.288ZM78.0967 122.288C77.0887 122.288 76.1847 122.048 75.3847 121.568C74.6007 121.088 73.9847 120.384 73.5367 119.456C73.0887 118.512 72.8647 117.368 72.8647 116.024C72.8647 114.696 73.0887 113.568 73.5367 112.64C73.9847 111.712 74.6007 111.008 75.3847 110.528C76.1847 110.048 77.0887 109.808 78.0967 109.808C79.0407 109.808 79.8167 109.992 80.4247 110.36C81.0487 110.728 81.5127 111.208 81.8167 111.8V104.72H83.8327V122H82.1767L81.9607 120.152H81.8167C81.4967 120.808 81.0247 121.328 80.4007 121.712C79.7767 122.096 79.0087 122.288 78.0967 122.288ZM78.3607 120.368C79.3687 120.368 80.2007 120.016 80.8567 119.312C81.5127 118.592 81.8407 117.504 81.8407 116.048C81.8407 114.592 81.5127 113.512 80.8567 112.808C80.2007 112.088 79.3687 111.728 78.3607 111.728C77.3527 111.728 76.5207 112.088 75.8647 112.808C75.2247 113.512 74.9047 114.592 74.9047 116.048C74.9047 117.504 75.2247 118.592 75.8647 119.312C76.5207 120.016 77.3527 120.368 78.3607 120.368ZM90.3273 122.288C89.3193 122.288 88.4153 122.048 87.6153 121.568C86.8313 121.088 86.2153 120.384 85.7673 119.456C85.3193 118.512 85.0953 117.368 85.0953 116.024C85.0953 114.696 85.3193 113.568 85.7673 112.64C86.2153 111.712 86.8313 111.008 87.6153 110.528C88.4153 110.048 89.3193 109.808 90.3273 109.808C91.2713 109.808 92.0473 109.992 92.6553 110.36C93.2793 110.728 93.7433 111.208 94.0473 111.8V104.72H96.0633V122H94.4073L94.1913 120.152H94.0473C93.7273 120.808 93.2553 121.328 92.6313 121.712C92.0073 122.096 91.2393 122.288 90.3273 122.288ZM90.5913 120.368C91.5993 120.368 92.4313 120.016 93.0873 119.312C93.7433 118.592 94.0713 117.504 94.0713 116.048C94.0713 114.592 93.7433 113.512 93.0873 112.808C92.4313 112.088 91.5993 111.728 90.5913 111.728C89.5833 111.728 88.7513 112.088 88.0953 112.808C87.4553 113.512 87.1353 114.592 87.1353 116.048C87.1353 117.504 87.4553 118.592 88.0953 119.312C88.7513 120.016 89.5833 120.368 90.5913 120.368ZM99.3419 127.28L102.27 120.848H101.574L96.8699 110.096H99.0539L102.966 119.312L107.094 110.096H109.206L101.454 127.28H99.3419Z" fill="#202020"/>
<path d="M434.044 299.288C432.396 299.288 431.132 298.824 430.252 297.896C429.372 296.952 428.932 295.656 428.932 294.008H430.972C430.988 294.952 431.236 295.76 431.716 296.432C432.196 297.088 432.964 297.416 434.02 297.416C435.076 297.416 435.828 297.096 436.276 296.456C436.74 295.816 436.972 295.016 436.972 294.056V282.2H438.988V294.056C438.988 295.736 438.556 297.032 437.692 297.944C436.828 298.84 435.612 299.288 434.044 299.288ZM446.082 299.288C444.962 299.288 443.97 299.032 443.106 298.52C442.242 298.008 441.562 297.288 441.066 296.36C440.57 295.416 440.322 294.312 440.322 293.048C440.322 291.784 440.57 290.688 441.066 289.76C441.562 288.816 442.242 288.088 443.106 287.576C443.97 287.064 444.962 286.808 446.082 286.808C447.202 286.808 448.194 287.064 449.058 287.576C449.922 288.088 450.602 288.816 451.098 289.76C451.594 290.688 451.842 291.784 451.842 293.048C451.842 294.312 451.594 295.416 451.098 296.36C450.602 297.288 449.922 298.008 449.058 298.52C448.194 299.032 447.202 299.288 446.082 299.288ZM446.082 297.368C446.77 297.368 447.394 297.216 447.954 296.912C448.514 296.608 448.954 296.136 449.274 295.496C449.61 294.856 449.778 294.04 449.778 293.048C449.778 292.056 449.61 291.24 449.274 290.6C448.954 289.96 448.514 289.488 447.954 289.184C447.394 288.88 446.77 288.728 446.082 288.728C445.41 288.728 444.794 288.88 444.234 289.184C443.674 289.488 443.226 289.96 442.89 290.6C442.554 291.24 442.386 292.056 442.386 293.048C442.386 294.536 442.746 295.632 443.466 296.336C444.186 297.024 445.058 297.368 446.082 297.368ZM457.473 299.288C456.033 299.288 454.945 298.856 454.209 297.992C453.473 297.128 453.105 295.88 453.105 294.248V287.096H455.121V294.008C455.121 295.064 455.353 295.896 455.817 296.504C456.297 297.096 457.017 297.392 457.977 297.392C458.937 297.392 459.745 297.072 460.401 296.432C461.057 295.776 461.385 294.84 461.385 293.624V287.096H463.401V299H461.721L461.505 297.2H461.385C461.065 297.776 460.561 298.272 459.873 298.688C459.185 299.088 458.385 299.288 457.473 299.288ZM465.359 299V297.272H468.407V289.424C468.407 289.024 468.215 288.824 467.831 288.824H465.671V287.096H468.575C469.103 287.096 469.527 287.24 469.847 287.528C470.167 287.816 470.327 288.24 470.327 288.8V289.304H470.423C470.615 288.504 470.975 287.888 471.503 287.456C472.047 287.024 472.799 286.808 473.759 286.808H475.943V288.944H473.471C472.495 288.944 471.743 289.272 471.215 289.928C470.687 290.568 470.423 291.392 470.423 292.4V297.272H474.167V299H465.359ZM477.686 299V287.096H479.366L479.582 288.896H479.702C480.022 288.32 480.526 287.832 481.214 287.432C481.902 287.016 482.694 286.808 483.59 286.808C485.046 286.808 486.134 287.24 486.854 288.104C487.59 288.968 487.958 290.216 487.958 291.848V299H485.942V292.088C485.942 291.032 485.71 290.208 485.246 289.616C484.782 289.008 484.062 288.704 483.086 288.704C482.142 288.704 481.342 289.032 480.686 289.688C480.03 290.328 479.702 291.256 479.702 292.472V299H477.686ZM493.997 299.288C493.053 299.288 492.269 299.12 491.645 298.784C491.021 298.448 490.557 298.008 490.253 297.464C489.949 296.904 489.797 296.296 489.797 295.64C489.797 294.424 490.237 293.504 491.117 292.88C492.013 292.24 493.205 291.92 494.693 291.92H497.957V291.68C497.957 289.6 497.005 288.56 495.101 288.56C494.333 288.56 493.685 288.728 493.157 289.064C492.645 289.4 492.317 289.928 492.173 290.648H490.109C490.189 289.848 490.453 289.16 490.901 288.584C491.365 288.008 491.957 287.568 492.677 287.264C493.397 286.96 494.205 286.808 495.101 286.808C496.797 286.808 498.029 287.256 498.797 288.152C499.581 289.032 499.973 290.208 499.973 291.68V299H498.245L498.077 297.152H497.909C497.557 297.728 497.085 298.232 496.493 298.664C495.917 299.08 495.085 299.288 493.997 299.288ZM494.357 297.512C495.125 297.512 495.773 297.328 496.301 296.96C496.845 296.592 497.253 296.104 497.525 295.496C497.813 294.888 497.957 294.224 497.957 293.504H494.861C493.773 293.504 493.005 293.688 492.557 294.056C492.125 294.424 491.909 294.912 491.909 295.52C491.909 296.144 492.117 296.632 492.533 296.984C492.949 297.336 493.557 297.512 494.357 297.512ZM501.835 299V297.272H505.891V284.048C505.891 283.648 505.691 283.448 505.291 283.448H502.267V281.72H505.771C506.459 281.72 506.987 281.904 507.355 282.272C507.723 282.64 507.907 283.168 507.907 283.856V297.272H511.963V299H501.835ZM519.322 284.984C518.842 284.984 518.442 284.824 518.122 284.504C517.802 284.184 517.642 283.8 517.642 283.352C517.642 282.888 517.802 282.504 518.122 282.2C518.442 281.88 518.842 281.72 519.322 281.72C519.786 281.72 520.178 281.88 520.498 282.2C520.834 282.504 521.002 282.888 521.002 283.352C521.002 283.8 520.834 284.184 520.498 284.504C520.178 284.824 519.786 284.984 519.322 284.984ZM514.666 299V297.272H518.458V289.424C518.458 289.024 518.258 288.824 517.858 288.824H515.074V287.096H518.338C519.762 287.096 520.474 287.808 520.474 289.232V297.272H524.266V299H514.666ZM531.817 299.288C530.297 299.288 529.065 298.936 528.121 298.232C527.193 297.512 526.673 296.528 526.561 295.28H528.649C528.745 295.936 529.065 296.472 529.609 296.888C530.169 297.304 530.921 297.512 531.865 297.512C532.761 297.512 533.425 297.32 533.857 296.936C534.305 296.552 534.529 296.112 534.529 295.616C534.529 294.944 534.265 294.488 533.737 294.248C533.209 293.992 532.417 293.8 531.361 293.672C530.097 293.528 529.049 293.184 528.217 292.64C527.385 292.096 526.969 291.28 526.969 290.192C526.969 289.216 527.377 288.408 528.193 287.768C529.009 287.128 530.121 286.808 531.529 286.808C532.921 286.808 534.017 287.128 534.817 287.768C535.617 288.392 536.073 289.288 536.185 290.456H534.193C534.145 289.88 533.865 289.424 533.353 289.088C532.857 288.736 532.233 288.56 531.481 288.56C530.697 288.56 530.089 288.712 529.657 289.016C529.225 289.304 529.009 289.688 529.009 290.168C529.009 290.648 529.249 291.048 529.729 291.368C530.225 291.672 531.001 291.872 532.057 291.968C532.889 292.064 533.649 292.224 534.337 292.448C535.025 292.672 535.569 293.024 535.969 293.504C536.385 293.984 536.593 294.656 536.593 295.52C536.609 296.24 536.409 296.888 535.993 297.464C535.593 298.024 535.033 298.472 534.313 298.808C533.593 299.128 532.761 299.288 531.817 299.288ZM545.175 299C544.087 299 543.231 298.736 542.607 298.208C541.983 297.68 541.671 296.728 541.671 295.352V288.824H538.647V287.096H540.447C541.263 287.096 541.735 286.696 541.863 285.896L542.199 284.048H543.687V287.096H548.439V288.824H543.687V295.352C543.687 296.024 543.839 296.496 544.143 296.768C544.463 297.04 545.007 297.176 545.775 297.176H548.439V299H545.175ZM556.278 299.288C554.758 299.288 553.526 298.936 552.582 298.232C551.654 297.512 551.134 296.528 551.022 295.28H553.11C553.206 295.936 553.526 296.472 554.07 296.888C554.63 297.304 555.382 297.512 556.326 297.512C557.222 297.512 557.886 297.32 558.318 296.936C558.766 296.552 558.99 296.112 558.99 295.616C558.99 294.944 558.726 294.488 558.198 294.248C557.67 293.992 556.878 293.8 555.822 293.672C554.558 293.528 553.51 293.184 552.678 292.64C551.846 292.096 551.43 291.28 551.43 290.192C551.43 289.216 551.838 288.408 552.654 287.768C553.47 287.128 554.582 286.808 555.99 286.808C557.382 286.808 558.478 287.128 559.278 287.768C560.078 288.392 560.534 289.288 560.646 290.456H558.654C558.606 289.88 558.326 289.424 557.814 289.088C557.318 288.736 556.694 288.56 555.942 288.56C555.158 288.56 554.55 288.712 554.118 289.016C553.686 289.304 553.47 289.688 553.47 290.168C553.47 290.648 553.71 291.048 554.19 291.368C554.686 291.672 555.462 291.872 556.518 291.968C557.35 292.064 558.11 292.224 558.798 292.448C559.486 292.672 560.03 293.024 560.43 293.504C560.846 293.984 561.054 294.656 561.054 295.52C561.07 296.24 560.87 296.888 560.454 297.464C560.054 298.024 559.494 298.472 558.774 298.808C558.054 299.128 557.222 299.288 556.278 299.288Z" fill="#202020"/>
<path d="M81.4662 382V365.2H87.0582C88.8022 365.2 90.1142 365.6 90.9942 366.4C91.8742 367.2 92.3142 368.224 92.3142 369.472C92.3142 370.448 92.0502 371.256 91.5222 371.896C90.9942 372.52 90.4022 372.96 89.7462 373.216V373.384C90.5302 373.64 91.2182 374.104 91.8102 374.776C92.4022 375.448 92.6982 376.312 92.6982 377.368C92.6982 378.232 92.4822 379.016 92.0502 379.72C91.6342 380.408 91.0182 380.96 90.2022 381.376C89.4022 381.792 88.4182 382 87.2502 382H81.4662ZM83.4822 372.448H86.9142C87.9862 372.448 88.8022 372.216 89.3622 371.752C89.9382 371.272 90.2262 370.584 90.2262 369.688C90.2262 368.84 89.9462 368.184 89.3862 367.72C88.8262 367.256 87.9782 367.024 86.8422 367.024H83.4822V372.448ZM83.4822 380.152H87.0342C88.1862 380.152 89.0742 379.896 89.6982 379.384C90.3222 378.856 90.6342 378.12 90.6342 377.176C90.6342 376.232 90.3062 375.504 89.6502 374.992C88.9942 374.464 88.1062 374.2 86.9862 374.2H83.4822V380.152ZM99.2888 382.288C98.1688 382.288 97.1688 382.056 96.2888 381.592C95.4248 381.128 94.7368 380.424 94.2248 379.48C93.7288 378.52 93.4808 377.32 93.4808 375.88V365.2H95.4968V375.952C95.4968 377.392 95.8488 378.504 96.5528 379.288C97.2568 380.072 98.1848 380.464 99.3368 380.464C100.489 380.464 101.409 380.072 102.097 379.288C102.785 378.504 103.129 377.392 103.129 375.952V365.2H105.145V375.88C105.145 377.32 104.889 378.52 104.377 379.48C103.865 380.424 103.169 381.128 102.289 381.592C101.409 382.056 100.409 382.288 99.2888 382.288ZM106.719 382V380.248H110.535V366.952H106.719V365.2H116.367V366.952H112.551V380.248H116.367V382H106.719ZM118.662 382V365.2H120.678V380.176H129.198V382H118.662ZM134.997 382V367.024H130.485V365.2H141.525V367.024H137.013V382H134.997ZM142.835 383.848V382H153.635V383.848H142.835ZM155.45 382V365.2H165.938V367.072H157.466V372.928H164.714V374.728H157.466V382H155.45ZM172.697 382.288C171.337 382.288 170.169 381.928 169.193 381.208C168.217 380.488 167.465 379.48 166.937 378.184C166.425 376.872 166.169 375.344 166.169 373.6C166.169 371.856 166.425 370.336 166.937 369.04C167.465 367.728 168.217 366.712 169.193 365.992C170.169 365.272 171.337 364.912 172.697 364.912C174.057 364.912 175.225 365.272 176.201 365.992C177.177 366.712 177.921 367.728 178.433 369.04C178.961 370.336 179.225 371.856 179.225 373.6C179.225 375.344 178.961 376.872 178.433 378.184C177.921 379.48 177.177 380.488 176.201 381.208C175.225 381.928 174.057 382.288 172.697 382.288ZM172.697 380.392C174.025 380.392 175.097 379.8 175.913 378.616C176.745 377.432 177.161 375.76 177.161 373.6C177.161 371.44 176.745 369.768 175.913 368.584C175.097 367.4 174.025 366.808 172.697 366.808C171.353 366.808 170.273 367.4 169.457 368.584C168.641 369.768 168.233 371.44 168.233 373.6C168.233 375.76 168.641 377.432 169.457 378.616C170.273 379.8 171.353 380.392 172.697 380.392ZM179.695 382V365.2H184.855C186.151 365.2 187.215 365.416 188.047 365.848C188.895 366.28 189.527 366.872 189.943 367.624C190.359 368.36 190.567 369.2 190.567 370.144C190.567 371.248 190.279 372.224 189.703 373.072C189.143 373.904 188.279 374.488 187.111 374.824L190.759 382H188.359L184.975 375.112H184.855H181.711V382H179.695ZM181.711 373.264H184.783C186.063 373.264 186.999 372.976 187.591 372.4C188.199 371.808 188.503 371.056 188.503 370.144C188.503 369.184 188.207 368.424 187.615 367.864C187.039 367.304 186.087 367.024 184.759 367.024H181.711V373.264Z" fill="#D9D9D9"/>
<path d="M364.582 24V7.2H370.174C371.918 7.2 373.23 7.6 374.11 8.4C374.99 9.2 375.43 10.224 375.43 11.472C375.43 12.448 375.166 13.256 374.638 13.896C374.11 14.52 373.518 14.96 372.862 15.216V15.384C373.646 15.64 374.334 16.104 374.926 16.776C375.518 17.448 375.814 18.312 375.814 19.368C375.814 20.232 375.598 21.016 375.166 21.72C374.75 22.408 374.134 22.96 373.318 23.376C372.518 23.792 371.534 24 370.366 24H364.582ZM366.598 14.448H370.03C371.102 14.448 371.918 14.216 372.478 13.752C373.054 13.272 373.342 12.584 373.342 11.688C373.342 10.84 373.062 10.184 372.502 9.72C371.942 9.256 371.094 9.024 369.958 9.024H366.598V14.448ZM366.598 22.152H370.15C371.302 22.152 372.19 21.896 372.814 21.384C373.438 20.856 373.75 20.12 373.75 19.176C373.75 18.232 373.422 17.504 372.766 16.992C372.11 16.464 371.222 16.2 370.102 16.2H366.598V22.152ZM382.404 24.288C381.284 24.288 380.284 24.056 379.404 23.592C378.54 23.128 377.852 22.424 377.34 21.48C376.844 20.52 376.596 19.32 376.596 17.88V7.2H378.612V17.952C378.612 19.392 378.964 20.504 379.668 21.288C380.372 22.072 381.3 22.464 382.452 22.464C383.604 22.464 384.524 22.072 385.212 21.288C385.9 20.504 386.244 19.392 386.244 17.952V7.2H388.26V17.88C388.26 19.32 388.004 20.52 387.492 21.48C386.98 22.424 386.284 23.128 385.404 23.592C384.524 24.056 383.524 24.288 382.404 24.288ZM389.835 24V22.248H393.651V8.952H389.835V7.2H399.483V8.952H395.667V22.248H399.483V24H389.835ZM401.777 24V7.2H403.793V22.176H412.313V24H401.777ZM418.112 24V9.024H413.6V7.2H424.64V9.024H420.128V24H418.112ZM425.951 25.848V24H436.751V25.848H425.951ZM437.965 24V7.2H443.557C445.301 7.2 446.613 7.6 447.493 8.4C448.373 9.2 448.813 10.224 448.813 11.472C448.813 12.448 448.549 13.256 448.021 13.896C447.493 14.52 446.901 14.96 446.245 15.216V15.384C447.029 15.64 447.717 16.104 448.309 16.776C448.901 17.448 449.197 18.312 449.197 19.368C449.197 20.232 448.981 21.016 448.549 21.72C448.133 22.408 447.517 22.96 446.701 23.376C445.901 23.792 444.917 24 443.749 24H437.965ZM439.981 14.448H443.413C444.485 14.448 445.301 14.216 445.861 13.752C446.437 13.272 446.725 12.584 446.725 11.688C446.725 10.84 446.445 10.184 445.885 9.72C445.325 9.256 444.477 9.024 443.341 9.024H439.981V14.448ZM439.981 22.152H443.533C444.685 22.152 445.573 21.896 446.197 21.384C446.821 20.856 447.133 20.12 447.133 19.176C447.133 18.232 446.805 17.504 446.149 16.992C445.493 16.464 444.605 16.2 443.485 16.2H439.981V22.152ZM454.804 24V17.4L449.356 7.2H451.636L455.812 15.36L459.988 7.2H462.268L456.82 17.4V24H454.804Z" fill="#D9D9D9"/>
</svg>
